<svg width="75" height="75" viewBox="0 0 75 75" fill="none" xmlns="http://www.w3.org/2000/svg">
<path fill-rule="evenodd" clip-rule="evenodd" d="M34.264 37.0303L35.5547 37.0249C36.2429 37.0222 37.0117 37.0195 37.3438 37.0195C39.2455 37.0195 40.7871 35.4779 40.7871 33.5762C40.7871 31.6746 39.2455 30.133 37.3438 30.133H34.2595C33.7072 30.133 33.2595 30.5807 33.2595 31.133V36.0303C33.2595 36.2963 33.3655 36.5514 33.554 36.739C33.7425 36.9267 33.998 37.0315 34.264 37.0303ZM35.2595 35.0261V32.133H37.3438C38.141 32.133 38.7871 32.7791 38.7871 33.5762C38.7871 34.3734 38.141 35.0195 37.3438 35.0195C37.0068 35.0195 36.2334 35.0222 35.5468 35.0249L35.2595 35.0261Z" fill="#010101"/>
<path fill-rule="evenodd" clip-rule="evenodd" d="M34.2639 42.7512L35.7813 42.7448C36.59 42.7417 37.4934 42.7385 37.8825 42.7385C40.0132 42.7385 41.7406 41.0114 41.7406 38.8805C41.7406 36.7496 40.0132 35.0225 37.8825 35.0225H34.2595C33.7072 35.0225 33.2595 35.4702 33.2595 36.0225V41.7512C33.2595 42.0172 33.3654 42.2722 33.5539 42.4598C33.7424 42.6475 33.9979 42.7523 34.2639 42.7512ZM35.2595 40.747V37.0225H37.8825C38.9088 37.0225 39.7406 37.8543 39.7406 38.8805C39.7406 39.9067 38.9088 40.7385 37.8825 40.7385C37.4886 40.7385 36.5806 40.7417 35.7735 40.7449L35.2595 40.747Z" fill="#010101"/>
<path fill-rule="evenodd" clip-rule="evenodd" d="M27.8764 42.8439C28.3931 42.6489 28.6539 42.0719 28.4589 41.5552L24.5079 31.0861C24.5045 31.077 24.5009 31.068 24.4972 31.059C24.0749 30.0317 22.621 30.0352 22.2014 31.0612L22.1925 31.0839L18.2054 41.5524C18.0088 42.0685 18.2678 42.6463 18.784 42.8428C19.3001 43.0394 19.8778 42.7804 20.0744 42.2642L23.3465 33.673L26.5877 42.2614C26.7827 42.7781 27.3596 43.0389 27.8764 42.8439Z" fill="#010101"/>
<path fill-rule="evenodd" clip-rule="evenodd" d="M19.3834 39.301C19.3834 39.8532 19.8311 40.301 20.3834 40.301H26.2998C26.8521 40.301 27.2998 39.8532 27.2998 39.301C27.2998 38.7487 26.8521 38.301 26.2998 38.301H20.3834C19.8311 38.301 19.3834 38.7487 19.3834 39.301Z" fill="#010101"/>
<path fill-rule="evenodd" clip-rule="evenodd" d="M48.2064 36.4421C48.2064 38.8219 50.1356 40.7512 52.5156 40.7512C53.4728 40.7512 54.2125 40.4416 54.7641 39.9503L55.0939 39.6099C55.4487 39.1867 56.0795 39.1313 56.5027 39.4861C56.9259 39.8409 56.9813 40.4716 56.6265 40.8949C56.4628 41.0901 56.2853 41.2737 56.0942 41.4439C55.1591 42.2767 53.9397 42.7512 52.5156 42.7512C49.0311 42.7512 46.2064 39.9265 46.2064 36.4421C46.2064 32.9577 49.0311 30.133 52.5156 30.133C53.8209 30.133 55.0362 30.5305 56.0436 31.211C56.5013 31.5202 56.6217 32.1418 56.3125 32.5994C56.0034 33.0571 55.3818 33.1775 54.9241 32.8683C54.2368 32.404 53.4094 32.133 52.5156 32.133C50.1357 32.133 48.2064 34.0622 48.2064 36.4421Z" fill="#010101"/>
<path fill-rule="evenodd" clip-rule="evenodd" d="M0 54.97C0 58.8526 3.14756 62 7.03007 62H67.9699C71.8526 62 75 58.8526 75 54.97C75 53.2911 73.6389 51.9302 71.9603 51.9302H3.03974C1.36108 51.9302 0 53.291 0 54.97ZM7.03007 60C4.2521 60 2 57.7481 2 54.97C2 54.3957 2.46555 53.9302 3.03974 53.9302H71.9603C72.5345 53.9302 73 54.3957 73 54.97C73 57.7481 70.748 60 67.9699 60H7.03007Z" fill="#010101"/>
<path fill-rule="evenodd" clip-rule="evenodd" d="M32.0617 55.9652C30.3855 55.9652 29.0267 54.6065 29.0267 52.9303C29.0267 52.378 28.579 51.9303 28.0267 51.9303C27.4745 51.9303 27.0267 52.378 27.0267 52.9303C27.0267 55.711 29.281 57.9652 32.0617 57.9652H42.9395C45.7202 57.9652 47.9744 55.711 47.9744 52.9303C47.9744 52.378 47.5267 51.9303 46.9744 51.9303C46.4221 51.9303 45.9744 52.378 45.9744 52.9303C45.9744 54.6065 44.6157 55.9652 42.9395 55.9652H32.0617Z" fill="#010101"/>
<path fill-rule="evenodd" clip-rule="evenodd" d="M11.6952 53.9303C12.2475 53.9303 12.6952 53.4826 12.6952 52.9303V28.1525C12.6952 27.6002 12.2475 27.1525 11.6952 27.1525C11.1429 27.1525 10.6952 27.6002 10.6952 28.1525V52.9303C10.6952 53.4826 11.1429 53.9303 11.6952 53.9303Z" fill="#010101"/>
<path fill-rule="evenodd" clip-rule="evenodd" d="M63.3049 48.476C63.8572 48.476 64.3049 48.0282 64.3049 47.476V19.8997C64.3049 18.7721 63.3909 17.8581 62.2632 17.8581H12.7369C11.6095 17.8581 10.6951 18.7719 10.6951 19.8997V23.0025C10.6951 23.5547 11.1428 24.0025 11.6951 24.0025C12.2474 24.0025 12.6951 23.5547 12.6951 23.0025V19.8997C12.6951 19.8769 12.7137 19.8581 12.7369 19.8581H62.2632C62.2863 19.8581 62.3049 19.8767 62.3049 19.8997V47.476C62.3049 48.0282 62.7526 48.476 63.3049 48.476Z" fill="#010101"/>
<path fill-rule="evenodd" clip-rule="evenodd" d="M6.70126 53.9302C7.25354 53.9302 7.70126 53.4825 7.70126 52.9302V17.8931C7.70126 16.2202 9.05749 14.864 10.7305 14.864H64.2696C65.9426 14.864 67.2989 16.2202 67.2989 17.8931V37.4721C67.2989 38.0244 67.7466 38.4721 68.2989 38.4721C68.8512 38.4721 69.2989 38.0244 69.2989 37.4721V17.8931C69.2989 15.1155 67.0471 12.864 64.2696 12.864H10.7305C7.95302 12.864 5.70126 15.1155 5.70126 17.8931V52.9302C5.70126 53.4825 6.14897 53.9302 6.70126 53.9302Z" fill="#010101"/>
<path fill-rule="evenodd" clip-rule="evenodd" d="M68.2989 48.476C68.8512 48.476 69.2989 48.0282 69.2989 47.476V42.5729C69.2989 42.0206 68.8512 41.5729 68.2989 41.5729C67.7466 41.5729 67.2989 42.0206 67.2989 42.5729V47.476C67.2989 48.0282 67.7466 48.476 68.2989 48.476Z" fill="#010101"/>
<path fill-rule="evenodd" clip-rule="evenodd" d="M54.6734 53.9303C55.2257 53.9303 55.6734 53.4826 55.6734 52.9303V50.2032C55.6734 49.2493 56.4466 48.476 57.4005 48.476H68.6262C69.5801 48.476 70.3534 49.2493 70.3534 50.2032V52.9303C70.3534 53.4826 70.8011 53.9303 71.3534 53.9303C71.9056 53.9303 72.3534 53.4826 72.3534 52.9303V50.2032C72.3534 48.1447 70.6846 46.476 68.6262 46.476H57.4005C55.3419 46.476 53.6734 48.1448 53.6734 50.2032V52.9303C53.6734 53.4826 54.1211 53.9303 54.6734 53.9303Z" fill="#010101"/>
</svg>
