<svg width="75" height="75" viewBox="0 0 75 75" fill="none" xmlns="http://www.w3.org/2000/svg">
<g clip-path="url(#clip0_128_1340)">
<path fill-rule="evenodd" clip-rule="evenodd" d="M50.751 9.57602C51.1415 9.96653 51.7747 9.96652 52.1652 9.57598L55.0168 6.72428C55.4073 6.33375 55.4073 5.70058 55.0167 5.31007C54.6262 4.91955 53.993 4.91957 53.6025 5.3101L50.751 8.16181C50.3605 8.55234 50.3605 9.18551 50.751 9.57602Z" fill="#010101"/>
<path fill-rule="evenodd" clip-rule="evenodd" d="M11.3101 49.0175C11.7007 49.408 12.3338 49.408 12.7244 49.0175L15.5761 46.1658C15.9666 45.7753 15.9666 45.1421 15.5761 44.7516C15.1855 44.3611 14.5524 44.3611 14.1618 44.7516L11.3101 47.6033C10.9196 47.9938 10.9196 48.627 11.3101 49.0175Z" fill="#010101"/>
<path fill-rule="evenodd" clip-rule="evenodd" d="M14.2062 46.2101C24.4851 56.4892 41.0191 56.7002 51.5555 46.8434C51.9588 46.4661 51.9799 45.8333 51.6026 45.43C51.2253 45.0267 50.5925 45.0056 50.1892 45.3829C40.4378 54.5052 25.1341 54.3097 15.6204 44.7959C6.10636 35.282 5.91093 19.9776 15.0341 10.2262C15.4115 9.82295 15.3904 9.19014 14.9871 8.81282C14.5838 8.4355 13.951 8.45656 13.5737 8.85986C3.71599 19.3963 3.92685 35.9309 14.2062 46.2101C14.2062 46.2101 14.2062 46.2101 14.2062 46.2101Z" fill="#010101"/>
<path fill-rule="evenodd" clip-rule="evenodd" d="M53.6941 43.0473C54.1434 43.3685 54.768 43.2648 55.0892 42.8155C62.5954 32.3176 61.6366 17.6325 52.2101 8.20614C42.8067 -1.19734 28.1703 -2.17445 17.6779 5.27206C17.2275 5.5917 17.1215 6.21593 17.4412 6.66632C17.7608 7.1167 18.385 7.22269 18.8354 6.90305C28.5457 0.0115843 42.0937 0.918086 50.7958 9.62036C59.5194 18.3438 60.409 31.9369 53.4623 41.6522C53.1411 42.1015 53.2449 42.7261 53.6941 43.0473Z" fill="#010101"/>
<path d="M9.74524 47.3274L12.6597 47.5382C12.6959 47.5748 12.7322 47.6113 12.7686 47.6477C13.3005 48.1795 13.8493 48.6881 14.414 49.1728L11.3544 49.0619L9.74524 47.3274Z" fill="#010101"/>
<path d="M33.4938 56.1126C33.9812 56.108 34.4674 56.0909 34.9518 56.0616L34.2682 58.096C34.0168 58.1046 33.765 58.1101 33.513 58.1125C25.1464 58.1927 17.2623 54.9699 11.3544 49.0619L14.414 49.1728C19.7185 53.7268 26.4174 56.1804 33.4938 56.1126Z" fill="#010101"/>
<path d="M32.9431 60.086C33.1622 60.0878 33.3812 60.0873 33.6 60.0846L32.9274 62.086C23.7174 62.0139 15.065 58.3913 8.54478 51.8712C7.90545 51.2317 7.29461 50.5714 6.71215 49.8924C5.69346 48.7048 5.78453 46.9402 6.87716 45.8474C8.11705 44.6079 10.1315 44.7095 11.2616 46.0233C11.7076 46.5419 12.1737 47.0471 12.6597 47.5382L9.74524 47.3274C9.3607 46.8804 8.69393 46.8592 8.29112 47.2618C7.92394 47.6293 7.90471 48.2108 8.23022 48.5903C8.77992 49.2311 9.35618 49.854 9.95907 50.4571C16.1082 56.6061 24.2582 60.018 32.9431 60.086Z" fill="#010101"/>
<path d="M35.4663 56.0258L34.6046 58.0826C34.4925 58.0877 34.3804 58.0922 34.2682 58.096L34.9518 56.0616C35.1235 56.0512 35.295 56.0393 35.4663 56.0258Z" fill="#010101"/>
<path d="M57.6231 52.117C51.0461 58.5671 42.1381 62.1581 32.9274 62.086L33.7669 60.0821C42.1554 59.9369 50.2205 56.5755 56.2227 50.689C62.5825 44.452 66.0871 36.1021 66.0871 27.2081C66.0871 18.6988 62.8789 10.6876 57.032 4.54839L57.8713 2.54506C64.4576 9.13132 68.0871 17.8935 68.0871 27.2081C68.0871 36.6394 64.3663 45.5039 57.6231 52.117Z" fill="#010101"/>
<path d="M50.3551 50.4763L53.42 50.5874C48.1824 55.1113 41.5431 57.7691 34.6046 58.0826L35.4663 56.0258C40.8585 55.6024 46.0222 53.6658 50.3551 50.4763Z" fill="#010101"/>
<path d="M62.1119 27.5443C62.1904 20.611 59.7615 13.8784 55.3321 8.60596L56.1939 6.54884C61.3544 12.2932 64.1995 19.8118 64.1118 27.567C64.0211 35.5901 60.8889 43.1295 55.2656 48.8561C54.7059 49.4261 54.126 49.9724 53.5275 50.4941L50.614 50.2834C51.7516 49.4263 52.8302 48.4818 53.8386 47.4548C59.1001 42.0966 62.027 35.0512 62.1119 27.5443Z" fill="#010101"/>
<path d="M53.42 50.5874L50.3551 50.4763C50.4417 50.4125 50.5281 50.3482 50.614 50.2834L53.5275 50.4941C53.4917 50.5253 53.4559 50.5564 53.42 50.5874Z" fill="#010101"/>
<path d="M53.672 6.79315C53.1388 6.2587 52.5886 5.74781 52.0225 5.26088L54.0014 4.34201C54.3705 4.67842 54.7328 5.02466 55.0879 5.3806C55.4675 5.76115 55.8363 6.15073 56.1939 6.54884L55.3321 8.60596C54.8066 7.98044 54.253 7.37546 53.672 6.79315Z" fill="#010101"/>
<path d="M55.8924 0.71226C56.5713 1.29451 57.2318 1.90544 57.8713 2.54506L55.9319 3.44558C55.4943 3.02695 55.0468 2.62188 54.5903 2.23032C54.2105 1.90463 53.6289 1.92422 53.2616 2.2915C52.8588 2.69428 52.8804 3.36084 53.3268 3.74468C53.5541 3.94021 53.779 4.13933 54.0014 4.34201L52.0225 5.26088C50.7082 4.13063 50.6085 2.11615 51.8475 0.877135C52.9405 -0.215859 54.7048 -0.306233 55.8924 0.71226Z" fill="#010101"/>
<path d="M57.8713 2.54506L57.032 4.54839C56.843 4.34999 56.6513 4.15354 56.4569 3.9591C56.2835 3.78572 56.1085 3.61454 55.9319 3.44558L57.8713 2.54506Z" fill="#010101"/>
<path d="M46.3186 23.5458C45.4151 22.3257 43.9951 21.5974 42.4789 21.5745C42.3917 21.5731 42.3046 21.5733 42.2176 21.5749L42.5093 19.5747C45.0001 20 46.0858 21.1014 47.0429 22.0507C48.0001 23 49.7542 24.7667 51.5765 24.5267C51.2164 25.5 50.7477 26.4387 50.7477 26.4387C50.4089 26.3756 50.076 26.2804 49.7542 26.1538C48.4042 25.6228 47.1996 24.736 46.3186 23.5458Z" fill="#010101"/>
<path fill-rule="evenodd" clip-rule="evenodd" d="M39.0427 53.441C39.5871 53.3483 39.9534 52.8318 39.8607 52.2873C39.8208 52.0534 39.8189 51.8165 39.8615 51.5807L39.8704 51.5316L40.1389 50.0431C40.2814 49.2542 40.689 48.5377 41.2943 48.0125L41.4571 47.8711L41.9738 47.4227C42.7412 46.7564 43.1715 45.7818 43.1457 44.7652L43.1268 44.0194L43.0814 42.2318C43.0282 40.1311 42.1561 38.1345 40.651 36.6679L40.2452 36.2726C40.1958 36.2244 40.1456 36.1771 40.0948 36.1305C39.4304 35.5225 38.6475 35.0566 37.7947 34.7625L35.6091 34.009C34.5702 33.6508 33.7184 32.8911 33.2442 31.8999C32.7091 30.7813 32.7084 29.4808 33.2421 28.3616C34.2292 26.2919 35.7358 24.5133 37.6151 23.1993L37.9545 22.9618C39.208 22.0854 40.6925 21.6036 42.2176 21.5749L42.5093 19.5747C40.4726 19.5439 38.4776 20.1557 36.8082 21.3229L36.4688 21.5604C34.3063 23.0724 32.5727 25.1191 31.4369 27.5007C30.6431 29.1652 30.6442 31.0993 31.4401 32.763C32.1453 34.2372 33.4122 35.3671 34.9572 35.8998L37.1428 36.6533C37.7822 36.8738 38.3652 37.233 38.8494 37.705L39.2553 38.1004C39.4248 38.2656 39.5837 38.4398 39.7315 38.6219C40.5693 39.6544 41.0481 40.9402 41.082 42.2824L41.1464 44.816C41.157 45.235 40.9797 45.6372 40.6627 45.9124L39.9835 46.5019C39.0336 47.3262 38.3942 48.4504 38.1707 49.6878L37.8934 51.2253C37.8065 51.7058 37.8131 52.1773 37.889 52.623C37.9817 53.1675 38.4982 53.5337 39.0427 53.441ZM51.5765 24.5267C51.2164 25.5 50.7477 26.4387 50.7477 26.4387C50.9887 26.4836 51.2328 26.5122 51.4779 26.5243C51.6601 26.5332 52.0134 26.5455 52.3136 26.4529C54.5993 25.7481 55.3903 22.9743 53.9987 21.1177C53.6016 20.5877 53.1551 20.0162 52.7281 19.5233C51.6819 18.3155 50.2545 17.503 48.6838 17.2168C48.6728 17.2147 48.6617 17.2129 48.6506 17.2113L43.7139 16.4824C43.6785 16.4772 43.6428 16.4739 43.607 16.4725C43.0821 16.4519 42.7999 15.8466 43.1216 15.4314C43.2858 15.2194 43.5013 15.0533 43.7477 14.9487L45.3269 14.2775C46.5773 13.746 46.8931 12.1173 45.9301 11.1573C45.76 10.9878 45.7575 10.7073 45.9324 10.5325L46.6218 9.84302C46.7857 9.67914 47.0276 9.62123 47.2477 9.69294L47.7581 9.85922C48.8441 10.2128 49.9965 9.54381 50.2276 8.42537L50.4613 7.29512C50.5731 6.75428 50.2253 6.22518 49.6845 6.11336C49.1437 6.00153 48.6146 6.34932 48.5027 6.89017L48.2881 7.92841L47.8672 7.79131C46.9313 7.48641 45.9036 7.73284 45.2076 8.42881L44.5182 9.11827C43.5956 10.0409 43.5611 11.5242 44.4327 12.4843L42.9659 13.1078C42.4044 13.3463 41.914 13.7245 41.5406 14.2064C40.235 15.8917 41.3574 18.3408 43.4692 18.468L48.341 19.1872C49.4588 19.3947 50.4729 19.9744 51.2164 20.8327C51.5999 21.2754 52.0149 21.8055 52.3983 22.3171C52.9939 23.1118 52.6307 24.2312 51.7646 24.5285L51.7578 24.5289C51.716 24.5308 51.6182 24.5297 51.5765 24.5267Z" fill="#010101"/>
<path d="M13.436 43.7278C13.0466 44.1194 12.4134 44.1211 12.0218 43.7317C12.0218 43.7317 12.0005 41.1528 14.0001 40.8264C15.9998 40.5 15.9785 37.9211 15.9785 37.9211C16.0942 37.2963 16.4695 36.8946 16.8281 36.6344C17.0867 36.4468 17.4083 36.2868 17.6431 36.17C17.6928 36.1453 17.7385 36.1225 17.779 36.1018C18.325 35.8226 18.5784 35.6219 18.6774 35.1895C18.7482 34.8802 18.6093 34.4827 17.9052 33.8459C17.5882 33.5592 17.2271 33.2868 16.8439 32.9978L16.8102 32.9723C16.4385 32.692 16.0176 32.3743 15.695 32.0518C15.1103 31.467 14.5789 30.772 14.3091 29.9553C14.0282 29.1053 14.0533 28.189 14.48 27.2502C14.4943 27.2187 14.5033 27.195 14.5089 27.1781C14.4645 27.1003 14.3644 26.9827 14.0739 26.6437C13.4654 25.9332 12.613 24.8503 12.0353 22.6922C11.6165 21.1284 10.0931 19.8998 8.53983 19.3526C8.01892 19.1691 7.74541 18.5981 7.92891 18.0772C8.11242 17.5563 8.68346 17.2827 9.20437 17.4662C11.1134 18.1388 13.3158 19.742 13.9672 22.1749C14.444 23.9559 15.1091 24.7778 15.5929 25.3426C15.6188 25.3728 15.6467 25.4049 15.6761 25.4388C15.8911 25.6859 16.1865 26.0255 16.3508 26.3934C16.6 26.9512 16.5577 27.5125 16.3008 28.0777C16.0818 28.5595 16.0854 28.9563 16.2081 29.3278C16.3418 29.7325 16.6392 30.1675 17.1092 30.6376C17.314 30.8423 17.614 31.0735 18.0146 31.3757L18.0721 31.419C18.4363 31.6936 18.8617 32.0143 19.2468 32.3626C20.0063 33.0495 20.9652 34.1587 20.6269 35.6359C20.3169 36.9901 19.3327 37.5536 18.6895 37.8825C18.6019 37.9273 18.5251 37.9659 18.457 38.0001C18.2432 38.1074 18.1145 38.172 18.0026 38.2532C17.9702 38.2767 17.9515 38.2936 17.9417 38.3034C17.9107 38.4757 17.8897 38.6657 17.8632 38.9055C17.8523 39.0039 17.8405 39.1106 17.8267 39.228C17.782 39.6083 17.7192 40.0604 17.5942 40.5101C17.3386 41.4295 16.7825 42.4567 15.4907 42.9192C15.2061 43.0211 14.9399 43.1035 14.7066 43.175L14.6539 43.1911C14.4371 43.2574 14.259 43.312 14.0944 43.3702C13.744 43.4943 13.5628 43.6003 13.436 43.7278Z" fill="#010101"/>
<path d="M15.3963 13.0848C14.4126 13.2486 13.2816 13.1176 11.9245 12.3546C11.4431 12.084 10.8334 12.2548 10.5627 12.7362C10.2921 13.2177 10.4629 13.8273 10.9443 14.098C12.67 15.0681 14.26 15.3016 15.7249 15.0576C17.159 14.8187 18.3889 14.1355 19.4318 13.4253C19.926 13.0888 20.3966 12.733 20.829 12.4061L20.9029 12.3502C21.3648 12.0011 21.7773 11.6919 22.1712 11.4362C22.3192 11.3401 22.4573 11.2566 22.5866 11.1847L23.9046 10.8364L24.9014 11.0509C25.3425 11.1488 25.7843 11.2468 26.1488 11.3137C26.8576 11.4436 27.6133 11.5312 28.3426 11.4066C29.1134 11.275 29.8137 10.9142 30.3977 10.236C30.9568 9.58683 31.3717 8.69112 31.6933 7.54255C32.1268 5.9945 33.6316 5.35392 35.5805 4.83794C35.7773 4.78586 35.9832 4.73405 36.1925 4.68137C36.8996 4.50344 37.6458 4.31568 38.2098 4.07431C38.5885 3.91224 39.0129 3.67741 39.3258 3.30252C39.6757 2.88325 39.8273 2.35913 39.7423 1.7865C39.6613 1.24019 39.1528 0.86299 38.6065 0.944005C38.0703 1.02352 37.697 1.51487 37.7599 2.04955C37.7145 2.08687 37.616 2.15298 37.4229 2.23563C37.0174 2.40914 36.4976 2.54038 35.8395 2.70655C35.6011 2.76674 35.3445 2.83153 35.0687 2.90455C33.2203 3.39391 30.5393 4.24654 29.7674 7.00327L28.8822 8.93089L28.006 9.43517L26.5096 9.34648L25.4129 9.11554C25.0817 9.04109 24.7248 8.96083 24.2968 8.87524C23.0793 8.63173 21.9753 9.17878 21.0821 9.75878C20.6188 10.0596 20.1506 10.4119 19.697 10.7547L19.6334 10.8027L18.3061 11.7722L15.3963 13.0848Z" fill="#010101"/>
<path fill-rule="evenodd" clip-rule="evenodd" d="M22.2988 73C22.1894 73 22.1007 72.9113 22.1007 72.8019C22.1007 71.5114 23.1468 70.4653 24.4373 70.4653H49.6497C50.9402 70.4653 51.9863 71.5114 51.9863 72.8019C51.9863 72.9113 51.8976 73 51.7882 73H22.2988ZM20.1007 72.8019C20.1007 74.0159 21.0848 75 22.2988 75H51.7882C53.0022 75 53.9863 74.0159 53.9863 72.8019C53.9863 70.4068 52.0448 68.4653 49.6497 68.4653H24.4373C22.0422 68.4653 20.1007 70.4068 20.1007 72.8019Z" fill="#010101"/>
<path fill-rule="evenodd" clip-rule="evenodd" d="M25.4012 70.4653C25.9535 70.4653 26.4012 70.0176 26.4012 69.4653V67.8767C26.4012 67.0714 27.0539 66.4186 27.8592 66.4186H46.2279C47.033 66.4186 47.6858 67.0714 47.6858 67.8767V69.4653C47.6858 70.0176 48.1335 70.4653 48.6858 70.4653C49.2381 70.4653 49.6858 70.0176 49.6858 69.4653V67.8767C49.6858 65.967 48.1377 64.4186 46.2279 64.4186H27.8592C25.9493 64.4186 24.4012 65.9669 24.4012 67.8767V69.4653C24.4012 70.0176 24.8489 70.4653 25.4012 70.4653Z" fill="#010101"/>
<path fill-rule="evenodd" clip-rule="evenodd" d="M31.583 66.385C32.1168 66.5269 32.6644 66.2092 32.8063 65.6754L33.9577 61.3426C34.0995 60.8088 33.7818 60.2611 33.248 60.1193C32.7143 59.9774 32.1666 60.2951 32.0248 60.8289L30.8734 65.1618C30.7315 65.6955 31.0492 66.2432 31.583 66.385Z" fill="#010101"/>
<path fill-rule="evenodd" clip-rule="evenodd" d="M42.5044 66.3852C43.0382 66.2433 43.3559 65.6956 43.2141 65.1619L41.8287 59.9485C41.6868 59.4147 41.1392 59.097 40.6054 59.2388C40.0716 59.3807 39.7539 59.9284 39.8958 60.4621L41.2811 65.6755C41.423 66.2093 41.9707 66.527 42.5044 66.3852Z" fill="#010101"/>
</g>
<defs>
<clipPath id="clip0_128_1340">
<rect width="75" height="75" fill="white" transform="matrix(1 0 0 -1 0 75)"/>
</clipPath>
</defs>
</svg>
