<svg width="75" height="75" viewBox="0 0 75 75" fill="none" xmlns="http://www.w3.org/2000/svg">
<g clip-path="url(#clip0_128_1222)">
<path fill-rule="evenodd" clip-rule="evenodd" d="M25.7797 36.1951C26.9149 37.5948 29.1798 36.7927 29.1798 34.9897V30.251C29.1798 30.1586 29.2545 30.0841 29.3465 30.0841C31.7814 30.0841 33.7554 28.1103 33.7554 25.6753V8.99283C33.7554 6.55795 31.7814 4.58398 29.3465 4.58398H4.40884C1.97397 4.58398 0 6.55795 0 8.99283V25.6753C0 28.1103 1.974 30.0841 4.40884 30.0841H20.7445C20.7948 30.0841 20.8423 30.1068 20.8738 30.1457L25.7797 36.1951ZM27.1798 34.7464L22.4274 28.8862C22.4274 28.8861 22.4274 28.8862 22.4274 28.8862C22.016 28.3788 21.3975 28.0841 20.7445 28.0841H4.40884C3.07851 28.0841 2 27.0057 2 25.6753V8.99283C2 7.66252 3.07854 6.58398 4.40884 6.58398H29.3465C30.6768 6.58398 31.7554 7.66252 31.7554 8.99283V25.6753C31.7554 27.0057 30.6769 28.0841 29.3465 28.0841C28.1498 28.0841 27.1798 29.0542 27.1798 30.251V34.7464Z" fill="#010101"/>
<path fill-rule="evenodd" clip-rule="evenodd" d="M36.9069 10.6753C36.9069 10.123 37.3546 9.67528 37.9069 9.67528H70.8501C73.1421 9.67528 75 11.5334 75 13.8252V67.8501C75 70.1421 73.1421 72 70.8501 72H7.1126C4.82082 72 2.96271 70.1421 2.96271 67.8501V34.2346C2.96271 33.6823 3.41043 33.2346 3.96271 33.2346C4.515 33.2346 4.96271 33.6823 4.96271 34.2346V67.8501C4.96271 69.0375 5.92533 70 7.1126 70H70.8501C72.0375 70 73 69.0375 73 67.8501V13.8252C73 12.6379 72.0375 11.6753 70.8501 11.6753H37.9069C37.3546 11.6753 36.9069 11.2276 36.9069 10.6753ZM31.7546 17.0217C31.7546 16.4694 32.2023 16.0217 32.7546 16.0217H66.3533C67.6236 16.0217 68.6535 17.0517 68.6535 18.322V57.3716C68.6535 58.6421 67.6235 59.6719 66.3533 59.6719H11.6092C10.3387 59.6719 9.30888 58.6421 9.30888 57.3716V29.0842C9.30888 28.532 9.7566 28.0842 10.3089 28.0842C10.8612 28.0842 11.3089 28.532 11.3089 29.0842V57.3716C11.3089 57.5375 11.4433 57.6719 11.6092 57.6719H66.3533C66.519 57.6719 66.6535 57.5375 66.6535 57.3716V18.322C66.6535 18.1561 66.5189 18.0217 66.3533 18.0217H32.7546C32.2023 18.0217 31.7546 17.574 31.7546 17.0217ZM9.30888 64.9789C9.30888 64.4267 9.7566 63.9789 10.3089 63.9789H67.6535C68.2058 63.9789 68.6535 64.4267 68.6535 64.9789C68.6535 65.5312 68.2058 65.9789 67.6535 65.9789H10.3089C9.7566 65.9789 9.30888 65.5312 9.30888 64.9789Z" fill="#010101"/>
<path fill-rule="evenodd" clip-rule="evenodd" d="M42.2426 27.8903C42.2426 24.231 45.2089 21.2648 48.868 21.2648H55.1255C58.7846 21.2648 61.7509 24.231 61.7509 27.8903V31.3469C62.5802 31.8677 63.1315 32.7905 63.1315 33.842V35.0046C63.1315 36.6301 61.8146 37.9487 60.1882 37.9487H59.3599C59.0101 39.1546 58.3665 40.2797 57.3425 41.1615C57.0817 41.386 56.7974 41.6054 56.4893 41.812V42.3612C56.4893 42.5858 56.5237 42.8057 56.5887 43.0145C56.9366 42.9197 57.3111 42.9342 57.6587 43.0658L59.174 43.6393C59.6858 43.8331 60.0506 44.2418 60.2079 44.7217C65.1721 46.185 68.655 50.7578 68.6549 56.0235V57.3172C68.6549 58.6177 67.6007 59.6719 66.3002 59.6719C65.7479 59.6719 65.3002 59.2242 65.3002 58.6719C65.3002 58.1196 65.7479 57.6719 66.3002 57.6719C66.4961 57.6719 66.6549 57.5132 66.6549 57.3172V56.0235C66.655 51.7157 63.8471 47.9656 59.8209 46.6945L58.7827 49.0379C58.2968 50.1349 57.1049 50.7014 55.9757 50.4356L54.5828 52.6572L55.9791 58.4371C56.1088 58.9739 55.7787 59.5143 55.2419 59.644C54.705 59.7736 54.1647 59.4436 54.035 58.9067L52.7247 53.4827H51.2631L49.9529 58.9067C49.8233 59.4436 49.283 59.7736 48.7461 59.644C48.2093 59.5143 47.8792 58.974 48.0089 58.4371L49.405 52.6572L48.0127 50.4366C46.8849 50.6999 45.6955 50.1336 45.2102 49.0381L44.1719 46.6955C40.1474 47.9674 37.3408 51.7167 37.3408 56.0235V58.6719C37.3408 59.2242 36.8931 59.6719 36.3408 59.6719C35.7885 59.6719 35.3408 59.2242 35.3408 58.6719V56.0235C35.3408 50.759 38.822 46.1872 43.7842 44.7227C43.9415 44.2422 44.3067 43.8332 44.8186 43.6394L46.334 43.0658C46.6824 42.9339 47.0577 42.9196 47.4062 43.0151C47.4714 42.8061 47.5058 42.586 47.5058 42.3612V41.8127C47.1973 41.6059 46.9127 41.3863 46.6516 41.1615C45.6269 40.2792 44.9861 39.1539 44.6384 37.9487H43.8079C42.1814 37.9487 40.8645 36.6301 40.8645 35.0046V33.842C40.8645 32.7916 41.4144 31.8692 42.2426 31.3481V27.8903ZM46.6738 29.7326V28.2321V28.0341C46.6738 26.7839 47.6782 25.7299 48.9595 25.7261C49.6133 25.7241 50.2092 25.8071 50.7121 25.9178C51.5587 26.1039 52.4348 26.1039 53.2812 25.9178C53.5904 25.8498 53.9346 25.7922 54.3059 25.7584C54.5386 25.7372 54.782 25.7253 55.034 25.7261C56.315 25.7299 57.3196 26.7838 57.3196 28.0341V30.3183C57.3196 30.6385 57.5791 30.8978 57.8991 30.8978H59.7509V27.8903C59.7509 25.3356 57.6801 23.2648 55.1255 23.2648H48.868C46.3134 23.2648 44.2426 25.3356 44.2426 27.8903V30.8978H46.0943C46.4144 30.8978 46.6738 30.6384 46.6738 30.3183V29.7326ZM44.317 35.9487C44.3134 35.8699 44.3107 35.7911 44.309 35.7124L44.3088 35.6917L44.3068 32.8978H43.8078C43.7128 32.8978 43.621 32.9121 43.5332 32.9388L43.5147 32.9442C43.1373 33.0675 42.8645 33.4225 42.8645 33.842V35.0046C42.8645 35.5265 43.2869 35.9487 43.8079 35.9487H44.317ZM57.6905 32.8895C56.3634 32.7834 55.3196 31.6728 55.3196 30.3183V28.0341C55.3196 27.855 55.176 27.7265 55.028 27.7261C54.5457 27.7246 54.0975 27.7861 53.7107 27.8711C52.6453 28.1054 51.5446 28.1186 50.4751 27.9109C50.4108 27.8985 50.3467 27.8852 50.2826 27.8711C49.8961 27.7861 49.4481 27.7246 48.9657 27.7261C48.8176 27.7265 48.6738 27.8549 48.6738 28.0341V28.7742V30.3183C48.6738 31.6715 47.6319 32.7812 46.3068 32.8892L46.3088 35.6796C46.3169 36.0361 46.3489 36.3835 46.4058 36.7186C46.414 36.7538 46.4205 36.7896 46.4249 36.8261C46.6362 37.9556 47.1351 38.9386 47.9566 39.6459C48.2586 39.9059 48.5962 40.1537 48.9716 40.3721C48.9928 40.3833 49.0136 40.3952 49.0339 40.4079C49.8431 40.8665 50.8243 41.1869 51.997 41.2019C53.1708 41.1869 54.1528 40.8659 54.9624 40.4066C54.9819 40.3945 55.0018 40.3831 55.0221 40.3723C55.3976 40.1539 55.7354 39.906 56.0375 39.6459C56.8635 38.9346 57.3662 37.945 57.5774 36.8101C57.581 36.7836 57.5857 36.7575 57.5914 36.7318C57.6485 36.4027 57.6813 36.0618 57.6907 35.7122L57.6905 35.691V32.8895ZM59.6905 32.8978V35.6456C59.6915 35.6678 59.6918 35.6901 59.6913 35.7125C59.6896 35.7912 59.687 35.87 59.6833 35.9487H60.1882C60.709 35.9487 61.1315 35.5266 61.1315 35.0046V33.842C61.1315 33.4259 60.8623 33.0727 60.4885 32.9469C60.4791 32.9444 60.4698 32.9417 60.4605 32.9389C60.3828 32.9153 60.3024 32.9014 60.2194 32.8984L60.2007 32.898L60.1874 32.8979L60.1751 32.8978H59.6905ZM52.0081 43.2019C52.9299 43.1916 53.7635 43.0369 54.511 42.7877C54.5602 43.2692 54.6918 43.7335 54.8955 44.1622L51.9964 46.4162L49.0989 44.1635C49.303 43.7345 49.4348 43.2699 49.4841 42.7881C50.2313 43.0371 51.0645 43.1917 51.9858 43.2019H52.0081ZM48.295 48.1805L50.0425 47.4305L47.1845 45.2085C47.1674 45.1961 47.1506 45.1831 47.1342 45.1695L47.1328 45.1684L46.9023 44.9891L45.7899 45.4102L47.0386 48.2277C47.1401 48.4567 47.4068 48.5617 47.637 48.4629L47.7551 48.4122C47.7911 48.3818 47.8297 48.3535 47.8708 48.3277C48.0038 48.2444 48.1488 48.1961 48.295 48.1805ZM51.9964 48.7683L54.0956 49.6693L52.9586 51.4827H51.0292L49.8932 49.671L51.9964 48.7683ZM57.0904 44.9891L53.9502 47.4305L55.695 48.1793C55.8407 48.1951 55.9853 48.2433 56.1178 48.3264C56.1585 48.3519 56.1967 48.3799 56.2323 48.4099L56.3557 48.4629C56.5859 48.5617 56.8526 48.4569 56.954 48.2279L58.2025 45.41L57.0904 44.9891Z" fill="#010101"/>
<path fill-rule="evenodd" clip-rule="evenodd" d="M15.4409 11.2185C16.3782 10.9377 17.3774 10.9377 18.3148 11.2185L27.4592 13.9586C28.7537 14.3466 28.7538 16.1798 27.4593 16.5679L18.315 19.308C17.3775 19.589 16.3782 19.589 15.4408 19.308M15.4408 19.308L6.29652 16.5679C5.00176 16.1799 5.00173 14.3466 6.29649 13.9586L15.4409 11.2185M16.0148 13.1344L8.9103 15.2633L16.0149 17.3921C16.5777 17.5609 17.1778 17.5609 17.7408 17.3922L24.8454 15.2633L17.7409 13.1344C17.1779 12.9658 16.5777 12.9658 16.0148 13.1344Z" fill="#010101"/>
<path fill-rule="evenodd" clip-rule="evenodd" d="M11.6495 21.7206C11.3935 21.7206 11.1861 21.5132 11.1861 21.2572V16.6899C11.1861 16.1376 10.7384 15.6899 10.1861 15.6899C9.63384 15.6899 9.18612 16.1376 9.18612 16.6899V21.2572C9.18612 22.6177 10.2889 23.7206 11.6495 23.7206H22.1047C23.4652 23.7206 24.568 22.6177 24.568 21.2572V16.6899C24.568 16.1376 24.1203 15.6899 23.568 15.6899C23.0157 15.6899 22.568 16.1376 22.568 16.6899V21.2572C22.568 21.5132 22.3605 21.7206 22.1047 21.7206H11.6495Z" fill="#010101"/>
<path fill-rule="evenodd" clip-rule="evenodd" d="M17.4248 67.3188C17.9771 67.3188 18.4248 66.871 18.4248 66.3188V63.6392C18.4248 63.0869 17.9771 62.6392 17.4248 62.6392C16.8725 62.6392 16.4248 63.0869 16.4248 63.6392V66.3188C16.4248 66.871 16.8725 67.3188 17.4248 67.3188Z" fill="#010101"/>
<path fill-rule="evenodd" clip-rule="evenodd" d="M27.4126 19.209C27.9649 19.209 28.4126 18.7613 28.4126 18.209V15.3778C28.4126 14.8255 27.9649 14.3778 27.4126 14.3778C26.8603 14.3778 26.4126 14.8255 26.4126 15.3778V18.209C26.4126 18.7613 26.8603 19.209 27.4126 19.209Z" fill="#010101"/>
</g>
<defs>
<clipPath id="clip0_128_1222">
<rect width="75" height="75" fill="white" transform="matrix(1 0 0 -1 0 75)"/>
</clipPath>
</defs>
</svg>
