<svg width="75" height="75" viewBox="0 0 75 75" fill="none" xmlns="http://www.w3.org/2000/svg">
<g clip-path="url(#clip0_128_1268)">
<path fill-rule="evenodd" clip-rule="evenodd" d="M61.5888 15.5729C62.1411 15.5734 62.5892 15.1261 62.5897 14.5738L62.5941 9.77356C62.5946 9.22128 62.1473 8.77315 61.595 8.77265C61.0428 8.77214 60.5946 9.21944 60.5941 9.77173L60.5897 14.572C60.5892 15.1242 61.0365 15.5724 61.5888 15.5729Z" fill="#010101"/>
<path fill-rule="evenodd" clip-rule="evenodd" d="M19.454 74.9611C20.0063 74.9616 20.4544 74.5143 20.4549 73.962L20.4625 65.427C20.463 64.8747 20.0157 64.4266 19.4634 64.4261C18.9111 64.4256 18.463 64.873 18.4625 65.4252L18.4549 73.9602C18.4544 74.5125 18.9017 74.9606 19.454 74.9611Z" fill="#010101"/>
<path fill-rule="evenodd" clip-rule="evenodd" d="M55.4122 74.9611C55.9645 74.9616 56.4126 74.5143 56.4131 73.962L56.4209 65.4271C56.4214 64.8748 55.9741 64.4266 55.4218 64.4261C54.8695 64.4256 54.4214 64.8729 54.4209 65.4252L54.4131 73.9602C54.4126 74.5125 54.8599 74.9606 55.4122 74.9611Z" fill="#010101"/>
<path fill-rule="evenodd" clip-rule="evenodd" d="M61.7023 73L13.1637 72.9564C11.4759 72.9549 9.99825 71.4715 10 69.5018L10.0024 66.9708C10.0105 57.9554 15.6291 50.2229 23.4799 47.8158C23.4952 47.8119 23.5105 47.8077 23.5258 47.803C24.0897 47.6314 24.613 47.5057 25.1527 47.3903L22.9907 45.8754C22.9749 45.8793 22.9591 45.8837 22.9434 45.8885C14.165 48.5545 8.01125 57.1233 8.00235 66.9689L8 69.5C7.99736 72.4475 10.2469 74.9538 13.1619 74.9564L61.7005 75C64.6152 75.0024 66.8695 72.5005 66.8721 69.5529L66.8743 67.0218C66.8832 57.1706 60.7414 48.5967 51.9713 45.9145C51.9556 45.9097 51.9399 45.9053 51.9241 45.9013C51.0008 45.6208 50.3001 45.4797 49.7108 45.361C49.5261 45.3238 49.3524 45.2888 49.1862 45.2524L49.171 45.249L49.1612 45.2469L48.1141 45.0306C46.2786 44.6514 44.9127 43.1021 44.8339 41.2821C44.8312 41.219 44.8298 41.1546 44.8298 41.0892L44.8316 39.163C44.8321 38.6108 44.3848 38.1626 43.8325 38.1621C43.2802 38.1616 42.8321 38.6089 42.8316 39.1612L42.8298 41.0874C42.8298 41.1803 42.8317 41.2747 42.8357 41.3683C42.9564 44.1557 45.0287 46.4354 47.7094 46.9892L48.5429 47.1614C48.6689 47.2195 48.8222 47.2603 48.991 47.2558C49.1191 47.2825 49.2449 47.3079 49.3709 47.3333C49.9533 47.4508 50.5416 47.5694 51.3853 47.8279C51.4005 47.8326 51.4158 47.8368 51.431 47.8407C59.2748 50.2624 64.8825 57.9998 64.8743 67.0201L64.8721 69.5511C64.8704 71.5207 63.3899 73.0014 61.7023 73ZM31.8304 42.8295L30.0933 41.075L30.0951 39.1498C30.0956 38.5975 30.5437 38.1502 31.096 38.1507C31.6483 38.1512 32.0956 38.5993 32.0951 39.1516L32.0933 41.0787C32.0931 41.1698 32.0913 41.2634 32.0868 41.359C32.0639 41.8687 31.9756 42.3614 31.8304 42.8295Z" fill="#010101"/>
<path d="M27.2075 46.97C26.8055 47.0559 26.4348 47.1299 26.0822 47.2004C25.7606 47.2646 25.4541 47.3259 25.1527 47.3903L22.9907 45.8754C23.9527 45.5856 24.8552 45.4053 25.7734 45.2219C26.1101 45.1546 26.4489 45.087 26.7935 45.0133L26.802 45.0115C28.6381 44.6357 30.0068 43.0888 30.0889 41.2689L30.0889 41.2673C30.0918 41.2063 30.0932 41.1418 30.0933 41.075L31.8304 42.8295C31.1819 44.9194 29.3968 46.5202 27.2075 46.97Z" fill="#010101"/>
<path fill-rule="evenodd" clip-rule="evenodd" d="M47.3627 30.4867C47.2723 35.8783 42.8738 40.2188 37.4625 40.2139C32.0513 40.2091 27.6605 35.8606 27.5799 30.4689L27.585 24.6273C27.585 24.6273 27.585 24.6273 27.585 24.6273C27.5864 23.2205 28.7278 22.0811 30.1347 22.0822C30.1347 22.0822 30.1346 22.0822 30.1347 22.0822L34.9184 22.0866C36.8242 22.0882 38.6511 21.3253 39.9896 19.9688C40.8006 19.1468 41.9074 18.6846 43.0621 18.6856M47.3627 30.4867L47.3693 23.0005C47.3714 20.6196 45.443 18.6878 43.0621 18.6856M37.4607 42.2139C43.9698 42.2198 49.2586 36.9965 49.3625 30.5114L49.3627 30.4963L49.3693 23.0022C49.3724 19.5168 46.5494 16.6887 43.0639 16.6856C41.3736 16.6842 39.7533 17.3607 38.5659 18.5641C37.6037 19.5392 36.2904 20.0877 34.9202 20.0866L30.1365 20.0822C27.6252 20.0801 25.5875 22.114 25.585 24.6253L25.5799 30.4748L25.58 30.4899C25.6722 36.9751 30.9517 42.2081 37.4607 42.2139Z" fill="#010101"/>
<path d="M20.4902 27.6998C20.493 25.1243 22.583 23.039 25.1582 23.0412L26.635 23.0425C27.1873 23.043 27.6346 23.4912 27.6341 24.0434C27.6336 24.5957 27.1855 25.043 26.6332 25.0425L25.1565 25.0412C23.6855 25.04 22.4918 26.2312 22.4902 27.702C22.4885 29.1736 23.6802 30.3679 25.1516 30.3693L26.6328 30.3706C27.1851 30.3711 27.6324 30.8192 27.6319 31.3715C27.6314 31.9238 27.1833 32.3711 26.631 32.3706L25.1499 32.3693C22.5736 32.3668 20.4872 30.2761 20.4902 27.6998Z" fill="#010101"/>
<path fill-rule="evenodd" clip-rule="evenodd" d="M47.3682 24.061C47.3687 23.5087 47.8168 23.0614 48.3691 23.0619L49.8044 23.0633C52.3798 23.0657 54.4657 25.155 54.4642 27.7303C54.4625 30.3066 52.3722 32.3935 49.796 32.3913L48.3076 32.39C47.7554 32.3895 47.308 31.9414 47.3085 31.3891C47.309 30.8368 47.7571 30.3895 48.3094 30.39L49.7978 30.3913C51.2693 30.3926 52.4632 29.2005 52.4642 27.7291C52.465 26.2581 51.2735 25.0646 49.8026 25.0633L48.7592 25.0623L48.3672 25.0619C47.815 25.0614 47.3677 24.6133 47.3682 24.061Z" fill="#010101"/>
<path fill-rule="evenodd" clip-rule="evenodd" d="M49.4687 46.8627C49.6516 47.3839 50.2224 47.658 50.7435 47.4751C55.5741 45.7796 58.1124 40.1588 55.8894 35.2808C55.875 35.2493 55.86 35.2166 55.845 35.1843C55.845 35.1842 55.8451 35.1844 55.845 35.1843C54.9119 33.1685 54.4544 30.955 54.4555 28.7146L54.4579 23.7295C54.4594 22.0399 54.2126 20.4066 53.7539 18.8646C53.5965 18.3352 53.0397 18.0337 52.5103 18.1912C51.981 18.3486 51.6795 18.9054 51.8369 19.4348C52.2413 20.7944 52.4592 22.2348 52.4579 23.7276L52.4555 28.7136C52.4543 31.2254 52.9671 33.7284 54.0302 36.0249L54.0695 36.1102C55.7977 39.9032 53.8182 44.2763 50.0811 45.588C49.56 45.7709 49.2858 46.3416 49.4687 46.8627Z" fill="#010101"/>
<path fill-rule="evenodd" clip-rule="evenodd" d="M25.4447 46.8412C25.6285 46.3204 25.3554 45.7492 24.8346 45.5654C21.0998 44.2469 19.128 39.8707 20.8631 36.0808C20.8632 36.0806 20.863 36.081 20.8631 36.0808L20.9026 35.9952C20.9027 35.9949 20.9029 35.9945 20.903 35.9942C21.9701 33.6998 22.4873 31.1981 22.4905 28.6868L22.497 23.7012C22.4985 22.0979 22.7524 20.5553 23.2189 19.1093C23.3885 18.5837 23.0999 18.0202 22.5743 17.8506C22.0487 17.681 21.4851 17.9696 21.3155 18.4952C20.7862 20.1357 20.4987 21.8843 20.497 23.6986L20.4905 28.6842C20.4876 30.9246 20.0261 33.1374 19.0891 35.1517L19.0885 35.153L19.0468 35.2435L19.0449 35.2476C16.8129 40.1217 19.3412 45.747 24.1688 47.4513C24.6896 47.6351 25.2608 47.362 25.4447 46.8412Z" fill="#010101"/>
<path fill-rule="evenodd" clip-rule="evenodd" d="M52.2564 18.2663C42.4721 15.7797 32.9123 15.7709 23.124 18.2402L22.2952 13.3395C23.2508 13.0767 24.2034 12.8382 25.1535 12.6239C25.6922 12.5023 26.0305 11.9671 25.9089 11.4283C25.7874 10.8896 25.2522 10.5514 24.7134 10.6729C23.7086 10.8996 22.7017 11.1523 21.6924 11.4311C20.7363 11.6953 20.1486 12.6412 20.3118 13.6062C20.3119 13.6062 20.3118 13.6061 20.3118 13.6062L21.1655 18.6538C21.3519 19.755 22.4388 20.477 23.5327 20.1997C33.0536 17.7847 42.3269 17.7931 51.8439 20.2251C52.9374 20.5046 54.0258 19.7844 54.2141 18.6834L55.0768 13.6379C55.0768 13.6378 55.0768 13.638 55.0768 13.6379C55.2419 12.673 54.6558 11.726 53.7003 11.46C45.6976 9.23302 37.8529 8.65413 29.9195 9.73154C29.3722 9.80586 28.9888 10.3098 29.0631 10.857C29.1374 11.4043 29.6413 11.7877 30.1886 11.7133C37.8174 10.6773 45.3655 11.2259 53.094 13.3673L52.2564 18.2663ZM53.1055 13.3003C53.1055 13.3003 53.1055 13.3004 53.1055 13.3003V13.3003Z" fill="#010101"/>
<path fill-rule="evenodd" clip-rule="evenodd" d="M53.0761 13.2663C53.2716 13.7828 53.8489 14.043 54.3654 13.8475L61.694 11.0729C61.6942 11.0729 61.6939 11.073 61.694 11.0729C62.8915 10.6198 62.8913 8.92787 61.6969 8.47313L41.0618 0.618777C41.0618 0.618774 41.0618 0.61878 41.0618 0.618777C38.8997 -0.204263 36.5109 -0.20621 34.3474 0.612673L13.6983 8.4299C13.6982 8.42994 13.6984 8.42986 13.6983 8.4299C12.5014 8.88288 12.5007 10.5748 13.6958 11.0297C13.6958 11.0297 13.6958 11.0297 13.6958 11.0297L21.02 13.8176C21.5362 14.0141 22.1139 13.7549 22.3103 13.2388C22.5068 12.7226 22.2477 12.1449 21.7315 11.9485L15.9082 9.73183L35.0554 2.48317C35.0554 2.48316 35.0554 2.48318 35.0554 2.48317C36.7616 1.83738 38.6454 1.83895 40.3503 2.48793L59.4844 9.77094L53.6572 11.977C53.1407 12.1726 52.8805 12.7498 53.0761 13.2663ZM60.9868 9.20215C60.9869 9.2021 60.9866 9.20221 60.9868 9.20215V9.20215Z" fill="#010101"/>
<path fill-rule="evenodd" clip-rule="evenodd" d="M65.0266 20.6343C65.1625 21.8153 64.2385 22.8505 63.05 22.8497L60.1125 22.8469C58.9234 22.846 58.0016 21.8085 58.1396 20.6281L58.759 15.3292C58.8761 14.3266 59.7262 13.5711 60.7354 13.572L62.4436 13.5736C63.4528 13.5745 64.3014 14.3315 64.4167 15.3346L65.0266 20.6343ZM60.4303 18.2583L60.5913 16.8802L60.7443 15.572L62.431 15.5736L62.7961 18.7464L63.0381 20.8496L61.9082 20.8486L60.1277 20.8469L60.4303 18.2583Z" fill="#010101"/>
<path fill-rule="evenodd" clip-rule="evenodd" d="M30.4354 55.6936C34.9274 57.4944 39.9648 57.4991 44.4599 55.7063C44.9729 55.5017 45.2229 54.92 45.0183 54.407C44.8137 53.894 44.232 53.644 43.719 53.8486C39.7008 55.4512 35.1951 55.447 31.1797 53.8372C30.667 53.6317 30.0849 53.8807 29.8794 54.3933C29.6739 54.906 29.9228 55.4881 30.4354 55.6936Z" fill="#010101"/>
<path fill-rule="evenodd" clip-rule="evenodd" d="M25.988 45.2069C26.5399 45.2266 26.9714 45.69 26.9517 46.2419C26.941 46.5422 27.0217 46.8257 27.1611 47.0495C27.1641 47.0542 27.167 47.059 27.1698 47.0637L32.0401 54.8486C32.0611 54.8823 33.2025 56.7972 34.3235 58.6782L36.5754 62.4568C36.5754 62.4568 36.5756 62.4572 35.7166 62.9691L36.5754 62.4568L36.5775 62.4604C36.7959 62.8301 37.1288 62.9861 37.4419 62.9874C37.7548 62.9868 38.0883 62.8313 38.3073 62.4621L38.3093 62.4588L39.142 62.9571C38.3093 62.4588 38.3093 62.4588 38.3093 62.4588L40.5682 58.6839C41.6921 56.8057 42.8377 54.8915 42.8594 54.857L47.7412 47.0845C47.7344 47.096 47.7277 47.1077 47.7213 47.1195L47.7195 47.1227L48.5975 47.6015L47.7506 47.0696L47.7412 47.0845C47.7446 47.0789 47.748 47.0734 47.7514 47.0679C47.8915 46.844 47.9726 46.5611 47.9624 46.2608C47.9437 45.7089 48.376 45.2462 48.928 45.2275C49.4799 45.2088 49.9426 45.6411 49.9613 46.1931C49.9847 46.8823 49.803 47.5519 49.4576 48.1116C49.4637 48.1012 49.4696 48.0908 49.4754 48.0802L49.4772 48.077L48.5992 47.5982L49.447 48.1286C49.4505 48.1229 49.454 48.1173 49.4576 48.1116C49.4532 48.1189 49.4488 48.1261 49.4443 48.1333L44.553 55.9208C44.553 55.9208 44.5329 55.9545 44.4946 56.0183C44.3919 56.1897 44.1593 56.5781 43.8432 57.1063L40.0288 63.4803L40.0274 63.4825L39.1674 62.9723C40.0255 63.4857 40.0256 63.4857 40.0256 63.4857C39.4421 64.4667 38.4521 64.9869 37.4415 64.9874H37.4386C36.4279 64.9849 35.4385 64.4629 34.8567 63.4795M25.4549 48.0931C25.1094 47.5322 24.9283 46.8607 24.953 46.1706C24.9727 45.6186 25.4361 45.1872 25.988 45.2069M40.0256 63.4857L40.0263 63.4844L40.0274 63.4825M21.2639 46.4962C21.7397 46.2158 22.3527 46.3744 22.633 46.8502L26.0203 52.6002C26.3006 53.076 26.1421 53.689 25.6662 53.9694C25.1904 54.2497 24.5774 54.0912 24.297 53.6153L20.9098 47.8653C20.6295 47.3895 20.788 46.7765 21.2639 46.4962ZM53.6495 46.5253C54.1249 46.8065 54.2823 47.4198 54.0011 47.8951L43.4229 65.7793C42.0516 68.0981 39.7508 69.2772 37.4363 69.2624C35.1216 69.273 32.8232 68.0896 31.456 65.7687L26.9127 58.056C26.6324 57.5801 26.7909 56.9671 27.2668 56.6868C27.7426 56.4065 28.3556 56.565 28.636 57.0409L33.1793 64.7536C34.1821 66.456 35.8189 67.2713 37.4317 67.2624L37.4445 67.2624C39.0573 67.2742 40.6957 66.4619 41.7014 64.7613L52.2797 46.8769C52.5609 46.4016 53.1742 46.2442 53.6495 46.5253Z" fill="#010101"/>
<path d="M34.8567 63.4795L25.988 45.2069L25.4549 48.0931L34.8567 63.4795Z" fill="#010101"/>
</g>
<defs>
<clipPath id="clip0_128_1268">
<rect width="75" height="75" fill="white" transform="matrix(1 0 0 -1 0 75)"/>
</clipPath>
</defs>
</svg>
