<svg width="30" height="30" viewBox="0 0 30 30" fill="none" xmlns="http://www.w3.org/2000/svg">
<path fill-rule="evenodd" clip-rule="evenodd" d="M23.7998 4.14908C22.914 4.55092 12.9294 9.2122 4.79678 12.9894C4.15261 13.3109 3.75 13.9539 3.75 14.5968C3.75 15.2397 4.23313 15.7219 4.79678 15.8023C5.2799 15.8827 10.1112 16.606 10.1112 16.606L11.48 24.6427L12.2047 21.1065L11.1579 15.8023L20.9815 8.56927L12.9294 17.4096L15.7477 20.6243C15.9087 20.785 19.3711 24.8034 19.6127 25.0445C20.0153 25.4463 20.6594 26.25 20.9815 26.25C21.5452 26.25 22.1088 25.4463 22.3504 24.2408C22.592 23.1157 24.2024 15.3201 26.2154 4.95275C26.457 3.82761 25.4102 3.34541 23.7998 4.14908Z" fill="#010101"/>
</svg>
