<svg width="30" height="30" viewBox="0 0 30 30" fill="none" xmlns="http://www.w3.org/2000/svg">
<path d="M28.6042 21.6698C28.5709 21.598 28.5398 21.5385 28.511 21.4908C28.0339 20.6315 27.1221 19.5767 25.7762 18.3262L25.7478 18.2976L25.7335 18.2836L25.7191 18.2692H25.7047C25.0939 17.6869 24.7071 17.2954 24.5451 17.0949C24.2487 16.7131 24.1823 16.3266 24.3443 15.9349C24.4587 15.6391 24.8886 15.0142 25.6329 14.0595C26.0245 13.5535 26.3345 13.148 26.5635 12.8425C28.215 10.647 28.931 9.24398 28.7113 8.63301L28.626 8.49024C28.5687 8.40428 28.4208 8.32564 28.1824 8.25393C27.9435 8.18237 27.6381 8.17053 27.2658 8.21822L23.1423 8.24671C23.0755 8.22304 22.9801 8.22524 22.8558 8.25393C22.7317 8.28262 22.6696 8.29701 22.6696 8.29701L22.5978 8.33287L22.5409 8.37594C22.4931 8.40443 22.4406 8.45453 22.3833 8.52614C22.3263 8.59751 22.2786 8.68125 22.2405 8.77669C21.7915 9.93169 21.2811 11.0055 20.7083 11.9982C20.355 12.5901 20.0307 13.1031 19.7344 13.5374C19.4386 13.9716 19.1904 14.2915 18.9901 14.4966C18.7895 14.7019 18.6085 14.8663 18.4459 14.9905C18.2836 15.1148 18.1596 15.1673 18.0738 15.1481C17.9878 15.1289 17.9068 15.1098 17.8302 15.0908C17.6966 15.0048 17.5892 14.8879 17.5082 14.74C17.4269 14.592 17.3721 14.4058 17.3435 14.1815C17.315 13.957 17.2981 13.764 17.2933 13.6016C17.2888 13.4395 17.2909 13.2102 17.3006 12.9143C17.3105 12.6183 17.315 12.418 17.315 12.3129C17.315 11.9502 17.322 11.5564 17.3362 11.1317C17.3507 10.7069 17.3624 10.3703 17.3721 10.1224C17.3819 9.87421 17.3864 9.61163 17.3864 9.33481C17.3864 9.05798 17.3695 8.84088 17.3362 8.68331C17.3033 8.52594 17.2528 8.37319 17.1863 8.22509C17.1193 8.07715 17.0214 7.96271 16.8928 7.88147C16.7639 7.80033 16.6038 7.73594 16.4131 7.68809C15.9072 7.5736 15.2629 7.51167 14.48 7.50204C12.7047 7.48298 11.5639 7.59762 11.058 7.84581C10.8576 7.95068 10.6762 8.09395 10.514 8.27519C10.3421 8.48527 10.3182 8.59991 10.4422 8.61877C11.015 8.70458 11.4205 8.90984 11.6592 9.23436L11.7452 9.40632C11.8121 9.53039 11.8789 9.75004 11.9458 10.065C12.0125 10.3799 12.0556 10.7283 12.0745 11.11C12.1222 11.8069 12.1222 12.4035 12.0745 12.8997C12.0268 13.3962 11.9816 13.7827 11.9385 14.0596C11.8955 14.3364 11.8311 14.5607 11.7452 14.7325C11.6592 14.9043 11.602 15.0093 11.5733 15.0474C11.5447 15.0855 11.5208 15.1095 11.5018 15.119C11.3778 15.1665 11.2487 15.1907 11.1152 15.1907C10.9814 15.1907 10.8192 15.1238 10.6284 14.9901C10.4376 14.8564 10.2395 14.6728 10.0343 14.4389C9.82899 14.2049 9.5975 13.878 9.33968 13.4581C9.08207 13.0381 8.81477 12.5418 8.53794 11.9691L8.30891 11.5537C8.16573 11.2865 7.97015 10.8975 7.72196 10.3869C7.47362 9.87612 7.25411 9.38205 7.06329 8.90477C6.98702 8.70432 6.87242 8.55172 6.71972 8.44671L6.64805 8.40363C6.60041 8.36551 6.52393 8.32504 6.41902 8.28191C6.31396 8.23884 6.20433 8.20794 6.08969 8.18894L2.16653 8.21742C1.76564 8.21742 1.49363 8.30824 1.3504 8.48963L1.29308 8.57544C1.26444 8.62323 1.25 8.69956 1.25 8.80462C1.25 8.90964 1.27864 9.03852 1.33596 9.19113C1.90867 10.5371 2.53147 11.8353 3.20438 13.0857C3.87729 14.3361 4.46203 15.3434 4.95826 16.1066C5.45459 16.8703 5.9605 17.5911 6.47599 18.2686C6.99148 18.9464 7.3327 19.3807 7.49964 19.5715C7.66679 19.7627 7.79808 19.9056 7.89352 20.0011L8.25154 20.3447C8.48062 20.5738 8.81703 20.8482 9.2609 21.1679C9.70487 21.4878 10.1964 21.8027 10.7357 22.1132C11.2751 22.4232 11.9026 22.6762 12.6186 22.8718C13.3345 23.0676 14.0313 23.1462 14.7091 23.1083H16.3557C16.6896 23.0795 16.9426 22.9744 17.1146 22.7932L17.1715 22.7214C17.2099 22.6645 17.2457 22.576 17.2788 22.4569C17.3123 22.3375 17.329 22.2061 17.329 22.0631C17.3192 21.6528 17.3504 21.2829 17.4218 20.9536C17.4932 20.6244 17.5746 20.3762 17.6655 20.2091C17.7564 20.0421 17.8591 19.9012 17.9732 19.7869C18.0877 19.6724 18.1692 19.6031 18.2171 19.5792C18.2646 19.5552 18.3026 19.5389 18.3312 19.5291C18.5603 19.4528 18.8299 19.5267 19.1404 19.7512C19.4507 19.9755 19.7417 20.2525 20.0139 20.5817C20.286 20.9112 20.6129 21.2808 20.9946 21.6912C21.3766 22.1017 21.7106 22.4069 21.9968 22.6077L22.2831 22.7795C22.4743 22.8941 22.7225 22.9991 23.028 23.0946C23.3329 23.1899 23.6001 23.2138 23.8296 23.1661L27.4948 23.1089C27.8574 23.1089 28.1395 23.0489 28.3396 22.9298C28.5401 22.8105 28.6592 22.6791 28.6976 22.5361C28.7359 22.393 28.738 22.2306 28.7049 22.049C28.6709 21.8679 28.6375 21.7413 28.6042 21.6698Z" fill="#010101"/>
</svg>
