<svg aria-hidden="true" xmlns="http://www.w3.org/2000/svg" xmlns:xlink="http://www.w3.org/1999/xlink"><symbol viewBox="0 0 75 75" id="elearning" xmlns="http://www.w3.org/2000/svg">
<path fill-rule="evenodd" clip-rule="evenodd" d="M34.264 37.0303L35.5547 37.0249C36.2429 37.0222 37.0117 37.0195 37.3438 37.0195C39.2455 37.0195 40.7871 35.4779 40.7871 33.5762C40.7871 31.6746 39.2455 30.133 37.3438 30.133H34.2595C33.7072 30.133 33.2595 30.5807 33.2595 31.133V36.0303C33.2595 36.2963 33.3655 36.5514 33.554 36.739C33.7425 36.9267 33.998 37.0315 34.264 37.0303ZM35.2595 35.0261V32.133H37.3438C38.141 32.133 38.7871 32.7791 38.7871 33.5762C38.7871 34.3734 38.141 35.0195 37.3438 35.0195C37.0068 35.0195 36.2334 35.0222 35.5468 35.0249L35.2595 35.0261Z"/>
<path fill-rule="evenodd" clip-rule="evenodd" d="M34.2639 42.7512L35.7813 42.7448C36.59 42.7417 37.4934 42.7385 37.8825 42.7385C40.0132 42.7385 41.7406 41.0114 41.7406 38.8805C41.7406 36.7496 40.0132 35.0225 37.8825 35.0225H34.2595C33.7072 35.0225 33.2595 35.4702 33.2595 36.0225V41.7512C33.2595 42.0172 33.3654 42.2722 33.5539 42.4598C33.7424 42.6475 33.9979 42.7523 34.2639 42.7512ZM35.2595 40.747V37.0225H37.8825C38.9088 37.0225 39.7406 37.8543 39.7406 38.8805C39.7406 39.9067 38.9088 40.7385 37.8825 40.7385C37.4886 40.7385 36.5806 40.7417 35.7735 40.7449L35.2595 40.747Z"/>
<path fill-rule="evenodd" clip-rule="evenodd" d="M27.8764 42.8439C28.3931 42.6489 28.6539 42.0719 28.4589 41.5552L24.5079 31.0861C24.5045 31.077 24.5009 31.068 24.4972 31.059C24.0749 30.0317 22.621 30.0352 22.2014 31.0612L22.1925 31.0839L18.2054 41.5524C18.0088 42.0685 18.2678 42.6463 18.784 42.8428C19.3001 43.0394 19.8778 42.7804 20.0744 42.2642L23.3465 33.673L26.5877 42.2614C26.7827 42.7781 27.3596 43.0389 27.8764 42.8439Z"/>
<path fill-rule="evenodd" clip-rule="evenodd" d="M19.3834 39.301C19.3834 39.8532 19.8311 40.301 20.3834 40.301H26.2998C26.8521 40.301 27.2998 39.8532 27.2998 39.301C27.2998 38.7487 26.8521 38.301 26.2998 38.301H20.3834C19.8311 38.301 19.3834 38.7487 19.3834 39.301Z"/>
<path fill-rule="evenodd" clip-rule="evenodd" d="M48.2064 36.4421C48.2064 38.8219 50.1356 40.7512 52.5156 40.7512C53.4728 40.7512 54.2125 40.4416 54.7641 39.9503L55.0939 39.6099C55.4487 39.1867 56.0795 39.1313 56.5027 39.4861C56.9259 39.8409 56.9813 40.4716 56.6265 40.8949C56.4628 41.0901 56.2853 41.2737 56.0942 41.4439C55.1591 42.2767 53.9397 42.7512 52.5156 42.7512C49.0311 42.7512 46.2064 39.9265 46.2064 36.4421C46.2064 32.9577 49.0311 30.133 52.5156 30.133C53.8209 30.133 55.0362 30.5305 56.0436 31.211C56.5013 31.5202 56.6217 32.1418 56.3125 32.5994C56.0034 33.0571 55.3818 33.1775 54.9241 32.8683C54.2368 32.404 53.4094 32.133 52.5156 32.133C50.1357 32.133 48.2064 34.0622 48.2064 36.4421Z"/>
<path fill-rule="evenodd" clip-rule="evenodd" d="M0 54.97C0 58.8526 3.14756 62 7.03007 62H67.9699C71.8526 62 75 58.8526 75 54.97C75 53.2911 73.6389 51.9302 71.9603 51.9302H3.03974C1.36108 51.9302 0 53.291 0 54.97ZM7.03007 60C4.2521 60 2 57.7481 2 54.97C2 54.3957 2.46555 53.9302 3.03974 53.9302H71.9603C72.5345 53.9302 73 54.3957 73 54.97C73 57.7481 70.748 60 67.9699 60H7.03007Z"/>
<path fill-rule="evenodd" clip-rule="evenodd" d="M32.0617 55.9652C30.3855 55.9652 29.0267 54.6065 29.0267 52.9303C29.0267 52.378 28.579 51.9303 28.0267 51.9303C27.4745 51.9303 27.0267 52.378 27.0267 52.9303C27.0267 55.711 29.281 57.9652 32.0617 57.9652H42.9395C45.7202 57.9652 47.9744 55.711 47.9744 52.9303C47.9744 52.378 47.5267 51.9303 46.9744 51.9303C46.4221 51.9303 45.9744 52.378 45.9744 52.9303C45.9744 54.6065 44.6157 55.9652 42.9395 55.9652H32.0617Z"/>
<path fill-rule="evenodd" clip-rule="evenodd" d="M11.6952 53.9303C12.2475 53.9303 12.6952 53.4826 12.6952 52.9303V28.1525C12.6952 27.6002 12.2475 27.1525 11.6952 27.1525C11.1429 27.1525 10.6952 27.6002 10.6952 28.1525V52.9303C10.6952 53.4826 11.1429 53.9303 11.6952 53.9303Z"/>
<path fill-rule="evenodd" clip-rule="evenodd" d="M63.3049 48.476C63.8572 48.476 64.3049 48.0282 64.3049 47.476V19.8997C64.3049 18.7721 63.3909 17.8581 62.2632 17.8581H12.7369C11.6095 17.8581 10.6951 18.7719 10.6951 19.8997V23.0025C10.6951 23.5547 11.1428 24.0025 11.6951 24.0025C12.2474 24.0025 12.6951 23.5547 12.6951 23.0025V19.8997C12.6951 19.8769 12.7137 19.8581 12.7369 19.8581H62.2632C62.2863 19.8581 62.3049 19.8767 62.3049 19.8997V47.476C62.3049 48.0282 62.7526 48.476 63.3049 48.476Z"/>
<path fill-rule="evenodd" clip-rule="evenodd" d="M6.70126 53.9302C7.25354 53.9302 7.70126 53.4825 7.70126 52.9302V17.8931C7.70126 16.2202 9.05749 14.864 10.7305 14.864H64.2696C65.9426 14.864 67.2989 16.2202 67.2989 17.8931V37.4721C67.2989 38.0244 67.7466 38.4721 68.2989 38.4721C68.8512 38.4721 69.2989 38.0244 69.2989 37.4721V17.8931C69.2989 15.1155 67.0471 12.864 64.2696 12.864H10.7305C7.95302 12.864 5.70126 15.1155 5.70126 17.8931V52.9302C5.70126 53.4825 6.14897 53.9302 6.70126 53.9302Z"/>
<path fill-rule="evenodd" clip-rule="evenodd" d="M68.2989 48.476C68.8512 48.476 69.2989 48.0282 69.2989 47.476V42.5729C69.2989 42.0206 68.8512 41.5729 68.2989 41.5729C67.7466 41.5729 67.2989 42.0206 67.2989 42.5729V47.476C67.2989 48.0282 67.7466 48.476 68.2989 48.476Z"/>
<path fill-rule="evenodd" clip-rule="evenodd" d="M54.6734 53.9303C55.2257 53.9303 55.6734 53.4826 55.6734 52.9303V50.2032C55.6734 49.2493 56.4466 48.476 57.4005 48.476H68.6262C69.5801 48.476 70.3534 49.2493 70.3534 50.2032V52.9303C70.3534 53.4826 70.8011 53.9303 71.3534 53.9303C71.9056 53.9303 72.3534 53.4826 72.3534 52.9303V50.2032C72.3534 48.1447 70.6846 46.476 68.6262 46.476H57.4005C55.3419 46.476 53.6734 48.1448 53.6734 50.2032V52.9303C53.6734 53.4826 54.1211 53.9303 54.6734 53.9303Z"/>
</symbol><symbol viewBox="0 0 75 75" id="globe" xmlns="http://www.w3.org/2000/svg">
<g clip-path="url(#bclip0_128_1340)">
<path fill-rule="evenodd" clip-rule="evenodd" d="M50.751 9.57602C51.1415 9.96653 51.7747 9.96652 52.1652 9.57598L55.0168 6.72428C55.4073 6.33375 55.4073 5.70058 55.0167 5.31007C54.6262 4.91955 53.993 4.91957 53.6025 5.3101L50.751 8.16181C50.3605 8.55234 50.3605 9.18551 50.751 9.57602Z"/>
<path fill-rule="evenodd" clip-rule="evenodd" d="M11.3101 49.0175C11.7007 49.408 12.3338 49.408 12.7244 49.0175L15.5761 46.1658C15.9666 45.7753 15.9666 45.1421 15.5761 44.7516C15.1855 44.3611 14.5524 44.3611 14.1618 44.7516L11.3101 47.6033C10.9196 47.9938 10.9196 48.627 11.3101 49.0175Z"/>
<path fill-rule="evenodd" clip-rule="evenodd" d="M14.2062 46.2101C24.4851 56.4892 41.0191 56.7002 51.5555 46.8434C51.9588 46.4661 51.9799 45.8333 51.6026 45.43C51.2253 45.0267 50.5925 45.0056 50.1892 45.3829C40.4378 54.5052 25.1341 54.3097 15.6204 44.7959C6.10636 35.282 5.91093 19.9776 15.0341 10.2262C15.4115 9.82295 15.3904 9.19014 14.9871 8.81282C14.5838 8.4355 13.951 8.45656 13.5737 8.85986C3.71599 19.3963 3.92685 35.9309 14.2062 46.2101C14.2062 46.2101 14.2062 46.2101 14.2062 46.2101Z"/>
<path fill-rule="evenodd" clip-rule="evenodd" d="M53.6941 43.0473C54.1434 43.3685 54.768 43.2648 55.0892 42.8155C62.5954 32.3176 61.6366 17.6325 52.2101 8.20614C42.8067 -1.19734 28.1703 -2.17445 17.6779 5.27206C17.2275 5.5917 17.1215 6.21593 17.4412 6.66632C17.7608 7.1167 18.385 7.22269 18.8354 6.90305C28.5457 0.0115843 42.0937 0.918086 50.7958 9.62036C59.5194 18.3438 60.409 31.9369 53.4623 41.6522C53.1411 42.1015 53.2449 42.7261 53.6941 43.0473Z"/>
<path d="M9.74524 47.3274L12.6597 47.5382C12.6959 47.5748 12.7322 47.6113 12.7686 47.6477C13.3005 48.1795 13.8493 48.6881 14.414 49.1728L11.3544 49.0619L9.74524 47.3274Z"/>
<path d="M33.4938 56.1126C33.9812 56.108 34.4674 56.0909 34.9518 56.0616L34.2682 58.096C34.0168 58.1046 33.765 58.1101 33.513 58.1125C25.1464 58.1927 17.2623 54.9699 11.3544 49.0619L14.414 49.1728C19.7185 53.7268 26.4174 56.1804 33.4938 56.1126Z"/>
<path d="M32.9431 60.086C33.1622 60.0878 33.3812 60.0873 33.6 60.0846L32.9274 62.086C23.7174 62.0139 15.065 58.3913 8.54478 51.8712C7.90545 51.2317 7.29461 50.5714 6.71215 49.8924C5.69346 48.7048 5.78453 46.9402 6.87716 45.8474C8.11705 44.6079 10.1315 44.7095 11.2616 46.0233C11.7076 46.5419 12.1737 47.0471 12.6597 47.5382L9.74524 47.3274C9.3607 46.8804 8.69393 46.8592 8.29112 47.2618C7.92394 47.6293 7.90471 48.2108 8.23022 48.5903C8.77992 49.2311 9.35618 49.854 9.95907 50.4571C16.1082 56.6061 24.2582 60.018 32.9431 60.086Z"/>
<path d="M35.4663 56.0258L34.6046 58.0826C34.4925 58.0877 34.3804 58.0922 34.2682 58.096L34.9518 56.0616C35.1235 56.0512 35.295 56.0393 35.4663 56.0258Z"/>
<path d="M57.6231 52.117C51.0461 58.5671 42.1381 62.1581 32.9274 62.086L33.7669 60.0821C42.1554 59.9369 50.2205 56.5755 56.2227 50.689C62.5825 44.452 66.0871 36.1021 66.0871 27.2081C66.0871 18.6988 62.8789 10.6876 57.032 4.54839L57.8713 2.54506C64.4576 9.13132 68.0871 17.8935 68.0871 27.2081C68.0871 36.6394 64.3663 45.5039 57.6231 52.117Z"/>
<path d="M50.3551 50.4763L53.42 50.5874C48.1824 55.1113 41.5431 57.7691 34.6046 58.0826L35.4663 56.0258C40.8585 55.6024 46.0222 53.6658 50.3551 50.4763Z"/>
<path d="M62.1119 27.5443C62.1904 20.611 59.7615 13.8784 55.3321 8.60596L56.1939 6.54884C61.3544 12.2932 64.1995 19.8118 64.1118 27.567C64.0211 35.5901 60.8889 43.1295 55.2656 48.8561C54.7059 49.4261 54.126 49.9724 53.5275 50.4941L50.614 50.2834C51.7516 49.4263 52.8302 48.4818 53.8386 47.4548C59.1001 42.0966 62.027 35.0512 62.1119 27.5443Z"/>
<path d="M53.42 50.5874L50.3551 50.4763C50.4417 50.4125 50.5281 50.3482 50.614 50.2834L53.5275 50.4941C53.4917 50.5253 53.4559 50.5564 53.42 50.5874Z"/>
<path d="M53.672 6.79315C53.1388 6.2587 52.5886 5.74781 52.0225 5.26088L54.0014 4.34201C54.3705 4.67842 54.7328 5.02466 55.0879 5.3806C55.4675 5.76115 55.8363 6.15073 56.1939 6.54884L55.3321 8.60596C54.8066 7.98044 54.253 7.37546 53.672 6.79315Z"/>
<path d="M55.8924 0.71226C56.5713 1.29451 57.2318 1.90544 57.8713 2.54506L55.9319 3.44558C55.4943 3.02695 55.0468 2.62188 54.5903 2.23032C54.2105 1.90463 53.6289 1.92422 53.2616 2.2915C52.8588 2.69428 52.8804 3.36084 53.3268 3.74468C53.5541 3.94021 53.779 4.13933 54.0014 4.34201L52.0225 5.26088C50.7082 4.13063 50.6085 2.11615 51.8475 0.877135C52.9405 -0.215859 54.7048 -0.306233 55.8924 0.71226Z"/>
<path d="M57.8713 2.54506L57.032 4.54839C56.843 4.34999 56.6513 4.15354 56.4569 3.9591C56.2835 3.78572 56.1085 3.61454 55.9319 3.44558L57.8713 2.54506Z"/>
<path d="M46.3186 23.5458C45.4151 22.3257 43.9951 21.5974 42.4789 21.5745C42.3917 21.5731 42.3046 21.5733 42.2176 21.5749L42.5093 19.5747C45.0001 20 46.0858 21.1014 47.0429 22.0507C48.0001 23 49.7542 24.7667 51.5765 24.5267C51.2164 25.5 50.7477 26.4387 50.7477 26.4387C50.4089 26.3756 50.076 26.2804 49.7542 26.1538C48.4042 25.6228 47.1996 24.736 46.3186 23.5458Z"/>
<path fill-rule="evenodd" clip-rule="evenodd" d="M39.0427 53.441C39.5871 53.3483 39.9534 52.8318 39.8607 52.2873C39.8208 52.0534 39.8189 51.8165 39.8615 51.5807L39.8704 51.5316L40.1389 50.0431C40.2814 49.2542 40.689 48.5377 41.2943 48.0125L41.4571 47.8711L41.9738 47.4227C42.7412 46.7564 43.1715 45.7818 43.1457 44.7652L43.1268 44.0194L43.0814 42.2318C43.0282 40.1311 42.1561 38.1345 40.651 36.6679L40.2452 36.2726C40.1958 36.2244 40.1456 36.1771 40.0948 36.1305C39.4304 35.5225 38.6475 35.0566 37.7947 34.7625L35.6091 34.009C34.5702 33.6508 33.7184 32.8911 33.2442 31.8999C32.7091 30.7813 32.7084 29.4808 33.2421 28.3616C34.2292 26.2919 35.7358 24.5133 37.6151 23.1993L37.9545 22.9618C39.208 22.0854 40.6925 21.6036 42.2176 21.5749L42.5093 19.5747C40.4726 19.5439 38.4776 20.1557 36.8082 21.3229L36.4688 21.5604C34.3063 23.0724 32.5727 25.1191 31.4369 27.5007C30.6431 29.1652 30.6442 31.0993 31.4401 32.763C32.1453 34.2372 33.4122 35.3671 34.9572 35.8998L37.1428 36.6533C37.7822 36.8738 38.3652 37.233 38.8494 37.705L39.2553 38.1004C39.4248 38.2656 39.5837 38.4398 39.7315 38.6219C40.5693 39.6544 41.0481 40.9402 41.082 42.2824L41.1464 44.816C41.157 45.235 40.9797 45.6372 40.6627 45.9124L39.9835 46.5019C39.0336 47.3262 38.3942 48.4504 38.1707 49.6878L37.8934 51.2253C37.8065 51.7058 37.8131 52.1773 37.889 52.623C37.9817 53.1675 38.4982 53.5337 39.0427 53.441ZM51.5765 24.5267C51.2164 25.5 50.7477 26.4387 50.7477 26.4387C50.9887 26.4836 51.2328 26.5122 51.4779 26.5243C51.6601 26.5332 52.0134 26.5455 52.3136 26.4529C54.5993 25.7481 55.3903 22.9743 53.9987 21.1177C53.6016 20.5877 53.1551 20.0162 52.7281 19.5233C51.6819 18.3155 50.2545 17.503 48.6838 17.2168C48.6728 17.2147 48.6617 17.2129 48.6506 17.2113L43.7139 16.4824C43.6785 16.4772 43.6428 16.4739 43.607 16.4725C43.0821 16.4519 42.7999 15.8466 43.1216 15.4314C43.2858 15.2194 43.5013 15.0533 43.7477 14.9487L45.3269 14.2775C46.5773 13.746 46.8931 12.1173 45.9301 11.1573C45.76 10.9878 45.7575 10.7073 45.9324 10.5325L46.6218 9.84302C46.7857 9.67914 47.0276 9.62123 47.2477 9.69294L47.7581 9.85922C48.8441 10.2128 49.9965 9.54381 50.2276 8.42537L50.4613 7.29512C50.5731 6.75428 50.2253 6.22518 49.6845 6.11336C49.1437 6.00153 48.6146 6.34932 48.5027 6.89017L48.2881 7.92841L47.8672 7.79131C46.9313 7.48641 45.9036 7.73284 45.2076 8.42881L44.5182 9.11827C43.5956 10.0409 43.5611 11.5242 44.4327 12.4843L42.9659 13.1078C42.4044 13.3463 41.914 13.7245 41.5406 14.2064C40.235 15.8917 41.3574 18.3408 43.4692 18.468L48.341 19.1872C49.4588 19.3947 50.4729 19.9744 51.2164 20.8327C51.5999 21.2754 52.0149 21.8055 52.3983 22.3171C52.9939 23.1118 52.6307 24.2312 51.7646 24.5285L51.7578 24.5289C51.716 24.5308 51.6182 24.5297 51.5765 24.5267Z"/>
<path d="M13.436 43.7278C13.0466 44.1194 12.4134 44.1211 12.0218 43.7317C12.0218 43.7317 12.0005 41.1528 14.0001 40.8264C15.9998 40.5 15.9785 37.9211 15.9785 37.9211C16.0942 37.2963 16.4695 36.8946 16.8281 36.6344C17.0867 36.4468 17.4083 36.2868 17.6431 36.17C17.6928 36.1453 17.7385 36.1225 17.779 36.1018C18.325 35.8226 18.5784 35.6219 18.6774 35.1895C18.7482 34.8802 18.6093 34.4827 17.9052 33.8459C17.5882 33.5592 17.2271 33.2868 16.8439 32.9978L16.8102 32.9723C16.4385 32.692 16.0176 32.3743 15.695 32.0518C15.1103 31.467 14.5789 30.772 14.3091 29.9553C14.0282 29.1053 14.0533 28.189 14.48 27.2502C14.4943 27.2187 14.5033 27.195 14.5089 27.1781C14.4645 27.1003 14.3644 26.9827 14.0739 26.6437C13.4654 25.9332 12.613 24.8503 12.0353 22.6922C11.6165 21.1284 10.0931 19.8998 8.53983 19.3526C8.01892 19.1691 7.74541 18.5981 7.92891 18.0772C8.11242 17.5563 8.68346 17.2827 9.20437 17.4662C11.1134 18.1388 13.3158 19.742 13.9672 22.1749C14.444 23.9559 15.1091 24.7778 15.5929 25.3426C15.6188 25.3728 15.6467 25.4049 15.6761 25.4388C15.8911 25.6859 16.1865 26.0255 16.3508 26.3934C16.6 26.9512 16.5577 27.5125 16.3008 28.0777C16.0818 28.5595 16.0854 28.9563 16.2081 29.3278C16.3418 29.7325 16.6392 30.1675 17.1092 30.6376C17.314 30.8423 17.614 31.0735 18.0146 31.3757L18.0721 31.419C18.4363 31.6936 18.8617 32.0143 19.2468 32.3626C20.0063 33.0495 20.9652 34.1587 20.6269 35.6359C20.3169 36.9901 19.3327 37.5536 18.6895 37.8825C18.6019 37.9273 18.5251 37.9659 18.457 38.0001C18.2432 38.1074 18.1145 38.172 18.0026 38.2532C17.9702 38.2767 17.9515 38.2936 17.9417 38.3034C17.9107 38.4757 17.8897 38.6657 17.8632 38.9055C17.8523 39.0039 17.8405 39.1106 17.8267 39.228C17.782 39.6083 17.7192 40.0604 17.5942 40.5101C17.3386 41.4295 16.7825 42.4567 15.4907 42.9192C15.2061 43.0211 14.9399 43.1035 14.7066 43.175L14.6539 43.1911C14.4371 43.2574 14.259 43.312 14.0944 43.3702C13.744 43.4943 13.5628 43.6003 13.436 43.7278Z"/>
<path d="M15.3963 13.0848C14.4126 13.2486 13.2816 13.1176 11.9245 12.3546C11.4431 12.084 10.8334 12.2548 10.5627 12.7362C10.2921 13.2177 10.4629 13.8273 10.9443 14.098C12.67 15.0681 14.26 15.3016 15.7249 15.0576C17.159 14.8187 18.3889 14.1355 19.4318 13.4253C19.926 13.0888 20.3966 12.733 20.829 12.4061L20.9029 12.3502C21.3648 12.0011 21.7773 11.6919 22.1712 11.4362C22.3192 11.3401 22.4573 11.2566 22.5866 11.1847L23.9046 10.8364L24.9014 11.0509C25.3425 11.1488 25.7843 11.2468 26.1488 11.3137C26.8576 11.4436 27.6133 11.5312 28.3426 11.4066C29.1134 11.275 29.8137 10.9142 30.3977 10.236C30.9568 9.58683 31.3717 8.69112 31.6933 7.54255C32.1268 5.9945 33.6316 5.35392 35.5805 4.83794C35.7773 4.78586 35.9832 4.73405 36.1925 4.68137C36.8996 4.50344 37.6458 4.31568 38.2098 4.07431C38.5885 3.91224 39.0129 3.67741 39.3258 3.30252C39.6757 2.88325 39.8273 2.35913 39.7423 1.7865C39.6613 1.24019 39.1528 0.86299 38.6065 0.944005C38.0703 1.02352 37.697 1.51487 37.7599 2.04955C37.7145 2.08687 37.616 2.15298 37.4229 2.23563C37.0174 2.40914 36.4976 2.54038 35.8395 2.70655C35.6011 2.76674 35.3445 2.83153 35.0687 2.90455C33.2203 3.39391 30.5393 4.24654 29.7674 7.00327L28.8822 8.93089L28.006 9.43517L26.5096 9.34648L25.4129 9.11554C25.0817 9.04109 24.7248 8.96083 24.2968 8.87524C23.0793 8.63173 21.9753 9.17878 21.0821 9.75878C20.6188 10.0596 20.1506 10.4119 19.697 10.7547L19.6334 10.8027L18.3061 11.7722L15.3963 13.0848Z"/>
<path fill-rule="evenodd" clip-rule="evenodd" d="M22.2988 73C22.1894 73 22.1007 72.9113 22.1007 72.8019C22.1007 71.5114 23.1468 70.4653 24.4373 70.4653H49.6497C50.9402 70.4653 51.9863 71.5114 51.9863 72.8019C51.9863 72.9113 51.8976 73 51.7882 73H22.2988ZM20.1007 72.8019C20.1007 74.0159 21.0848 75 22.2988 75H51.7882C53.0022 75 53.9863 74.0159 53.9863 72.8019C53.9863 70.4068 52.0448 68.4653 49.6497 68.4653H24.4373C22.0422 68.4653 20.1007 70.4068 20.1007 72.8019Z"/>
<path fill-rule="evenodd" clip-rule="evenodd" d="M25.4012 70.4653C25.9535 70.4653 26.4012 70.0176 26.4012 69.4653V67.8767C26.4012 67.0714 27.0539 66.4186 27.8592 66.4186H46.2279C47.033 66.4186 47.6858 67.0714 47.6858 67.8767V69.4653C47.6858 70.0176 48.1335 70.4653 48.6858 70.4653C49.2381 70.4653 49.6858 70.0176 49.6858 69.4653V67.8767C49.6858 65.967 48.1377 64.4186 46.2279 64.4186H27.8592C25.9493 64.4186 24.4012 65.9669 24.4012 67.8767V69.4653C24.4012 70.0176 24.8489 70.4653 25.4012 70.4653Z"/>
<path fill-rule="evenodd" clip-rule="evenodd" d="M31.583 66.385C32.1168 66.5269 32.6644 66.2092 32.8063 65.6754L33.9577 61.3426C34.0995 60.8088 33.7818 60.2611 33.248 60.1193C32.7143 59.9774 32.1666 60.2951 32.0248 60.8289L30.8734 65.1618C30.7315 65.6955 31.0492 66.2432 31.583 66.385Z"/>
<path fill-rule="evenodd" clip-rule="evenodd" d="M42.5044 66.3852C43.0382 66.2433 43.3559 65.6956 43.2141 65.1619L41.8287 59.9485C41.6868 59.4147 41.1392 59.097 40.6054 59.2388C40.0716 59.3807 39.7539 59.9284 39.8958 60.4621L41.2811 65.6755C41.423 66.2093 41.9707 66.527 42.5044 66.3852Z"/>
</g>
<defs>
<clipPath id="bclip0_128_1340">
<rect width="75" height="75" transform="matrix(1 0 0 -1 0 75)"/>
</clipPath>
</defs>
</symbol><symbol viewBox="0 0 30 30" id="instagram" xmlns="http://www.w3.org/2000/svg">
<path d="M18.75 15C18.75 15.7417 18.5301 16.4667 18.118 17.0834C17.706 17.7001 17.1203 18.1807 16.4351 18.4645C15.7498 18.7484 14.9958 18.8226 14.2684 18.6779C13.541 18.5333 12.8728 18.1761 12.3483 17.6516C11.8239 17.1272 11.4667 16.459 11.3221 15.7316C11.1774 15.0042 11.2516 14.2502 11.5355 13.5649C11.8193 12.8797 12.2999 12.294 12.9166 11.882C13.5333 11.4699 14.2583 11.25 15 11.25C15.9936 11.2531 16.9456 11.6492 17.6482 12.3518C18.3508 13.0544 18.7469 14.0064 18.75 15ZM26.7188 9.84375V20.1562C26.7188 21.8967 26.0273 23.5659 24.7966 24.7966C23.5659 26.0273 21.8967 26.7188 20.1562 26.7188H9.84375C8.10327 26.7188 6.43407 26.0273 5.20336 24.7966C3.97265 23.5659 3.28125 21.8967 3.28125 20.1562V9.84375C3.28125 8.10327 3.97265 6.43407 5.20336 5.20336C6.43407 3.97265 8.10327 3.28125 9.84375 3.28125H20.1562C21.8967 3.28125 23.5659 3.97265 24.7966 5.20336C26.0273 6.43407 26.7188 8.10327 26.7188 9.84375ZM20.625 15C20.625 13.8875 20.2951 12.7999 19.677 11.8749C19.0589 10.9499 18.1804 10.2289 17.1526 9.80318C16.1248 9.37744 14.9938 9.26604 13.9026 9.48308C12.8115 9.70013 11.8092 10.2359 11.0225 11.0225C10.2359 11.8092 9.70013 12.8115 9.48308 13.9026C9.26604 14.9938 9.37744 16.1248 9.80318 17.1526C10.2289 18.1804 10.9499 19.0589 11.8749 19.677C12.7999 20.2951 13.8875 20.625 15 20.625C16.4918 20.625 17.9226 20.0324 18.9775 18.9775C20.0324 17.9226 20.625 16.4918 20.625 15ZM22.5 8.90625C22.5 8.62812 22.4175 8.35624 22.263 8.12498C22.1085 7.89372 21.8889 7.71348 21.6319 7.60704C21.3749 7.50061 21.0922 7.47276 20.8194 7.52702C20.5466 7.58128 20.296 7.71521 20.0994 7.91188C19.9027 8.10855 19.7688 8.35912 19.7145 8.6319C19.6603 8.90469 19.6881 9.18744 19.7945 9.4444C19.901 9.70136 20.0812 9.92098 20.3125 10.0755C20.5437 10.23 20.8156 10.3125 21.0938 10.3125C21.4667 10.3125 21.8244 10.1643 22.0881 9.90062C22.3518 9.6369 22.5 9.27921 22.5 8.90625Z"/>
</symbol><symbol viewBox="0 0 75 75" id="learning" xmlns="http://www.w3.org/2000/svg">
<g clip-path="url(#dclip0_128_1222)">
<path fill-rule="evenodd" clip-rule="evenodd" d="M25.7797 36.1951C26.9149 37.5948 29.1798 36.7927 29.1798 34.9897V30.251C29.1798 30.1586 29.2545 30.0841 29.3465 30.0841C31.7814 30.0841 33.7554 28.1103 33.7554 25.6753V8.99283C33.7554 6.55795 31.7814 4.58398 29.3465 4.58398H4.40884C1.97397 4.58398 0 6.55795 0 8.99283V25.6753C0 28.1103 1.974 30.0841 4.40884 30.0841H20.7445C20.7948 30.0841 20.8423 30.1068 20.8738 30.1457L25.7797 36.1951ZM27.1798 34.7464L22.4274 28.8862C22.4274 28.8861 22.4274 28.8862 22.4274 28.8862C22.016 28.3788 21.3975 28.0841 20.7445 28.0841H4.40884C3.07851 28.0841 2 27.0057 2 25.6753V8.99283C2 7.66252 3.07854 6.58398 4.40884 6.58398H29.3465C30.6768 6.58398 31.7554 7.66252 31.7554 8.99283V25.6753C31.7554 27.0057 30.6769 28.0841 29.3465 28.0841C28.1498 28.0841 27.1798 29.0542 27.1798 30.251V34.7464Z"/>
<path fill-rule="evenodd" clip-rule="evenodd" d="M36.9069 10.6753C36.9069 10.123 37.3546 9.67528 37.9069 9.67528H70.8501C73.1421 9.67528 75 11.5334 75 13.8252V67.8501C75 70.1421 73.1421 72 70.8501 72H7.1126C4.82082 72 2.96271 70.1421 2.96271 67.8501V34.2346C2.96271 33.6823 3.41043 33.2346 3.96271 33.2346C4.515 33.2346 4.96271 33.6823 4.96271 34.2346V67.8501C4.96271 69.0375 5.92533 70 7.1126 70H70.8501C72.0375 70 73 69.0375 73 67.8501V13.8252C73 12.6379 72.0375 11.6753 70.8501 11.6753H37.9069C37.3546 11.6753 36.9069 11.2276 36.9069 10.6753ZM31.7546 17.0217C31.7546 16.4694 32.2023 16.0217 32.7546 16.0217H66.3533C67.6236 16.0217 68.6535 17.0517 68.6535 18.322V57.3716C68.6535 58.6421 67.6235 59.6719 66.3533 59.6719H11.6092C10.3387 59.6719 9.30888 58.6421 9.30888 57.3716V29.0842C9.30888 28.532 9.7566 28.0842 10.3089 28.0842C10.8612 28.0842 11.3089 28.532 11.3089 29.0842V57.3716C11.3089 57.5375 11.4433 57.6719 11.6092 57.6719H66.3533C66.519 57.6719 66.6535 57.5375 66.6535 57.3716V18.322C66.6535 18.1561 66.5189 18.0217 66.3533 18.0217H32.7546C32.2023 18.0217 31.7546 17.574 31.7546 17.0217ZM9.30888 64.9789C9.30888 64.4267 9.7566 63.9789 10.3089 63.9789H67.6535C68.2058 63.9789 68.6535 64.4267 68.6535 64.9789C68.6535 65.5312 68.2058 65.9789 67.6535 65.9789H10.3089C9.7566 65.9789 9.30888 65.5312 9.30888 64.9789Z"/>
<path fill-rule="evenodd" clip-rule="evenodd" d="M42.2426 27.8903C42.2426 24.231 45.2089 21.2648 48.868 21.2648H55.1255C58.7846 21.2648 61.7509 24.231 61.7509 27.8903V31.3469C62.5802 31.8677 63.1315 32.7905 63.1315 33.842V35.0046C63.1315 36.6301 61.8146 37.9487 60.1882 37.9487H59.3599C59.0101 39.1546 58.3665 40.2797 57.3425 41.1615C57.0817 41.386 56.7974 41.6054 56.4893 41.812V42.3612C56.4893 42.5858 56.5237 42.8057 56.5887 43.0145C56.9366 42.9197 57.3111 42.9342 57.6587 43.0658L59.174 43.6393C59.6858 43.8331 60.0506 44.2418 60.2079 44.7217C65.1721 46.185 68.655 50.7578 68.6549 56.0235V57.3172C68.6549 58.6177 67.6007 59.6719 66.3002 59.6719C65.7479 59.6719 65.3002 59.2242 65.3002 58.6719C65.3002 58.1196 65.7479 57.6719 66.3002 57.6719C66.4961 57.6719 66.6549 57.5132 66.6549 57.3172V56.0235C66.655 51.7157 63.8471 47.9656 59.8209 46.6945L58.7827 49.0379C58.2968 50.1349 57.1049 50.7014 55.9757 50.4356L54.5828 52.6572L55.9791 58.4371C56.1088 58.9739 55.7787 59.5143 55.2419 59.644C54.705 59.7736 54.1647 59.4436 54.035 58.9067L52.7247 53.4827H51.2631L49.9529 58.9067C49.8233 59.4436 49.283 59.7736 48.7461 59.644C48.2093 59.5143 47.8792 58.974 48.0089 58.4371L49.405 52.6572L48.0127 50.4366C46.8849 50.6999 45.6955 50.1336 45.2102 49.0381L44.1719 46.6955C40.1474 47.9674 37.3408 51.7167 37.3408 56.0235V58.6719C37.3408 59.2242 36.8931 59.6719 36.3408 59.6719C35.7885 59.6719 35.3408 59.2242 35.3408 58.6719V56.0235C35.3408 50.759 38.822 46.1872 43.7842 44.7227C43.9415 44.2422 44.3067 43.8332 44.8186 43.6394L46.334 43.0658C46.6824 42.9339 47.0577 42.9196 47.4062 43.0151C47.4714 42.8061 47.5058 42.586 47.5058 42.3612V41.8127C47.1973 41.6059 46.9127 41.3863 46.6516 41.1615C45.6269 40.2792 44.9861 39.1539 44.6384 37.9487H43.8079C42.1814 37.9487 40.8645 36.6301 40.8645 35.0046V33.842C40.8645 32.7916 41.4144 31.8692 42.2426 31.3481V27.8903ZM46.6738 29.7326V28.2321V28.0341C46.6738 26.7839 47.6782 25.7299 48.9595 25.7261C49.6133 25.7241 50.2092 25.8071 50.7121 25.9178C51.5587 26.1039 52.4348 26.1039 53.2812 25.9178C53.5904 25.8498 53.9346 25.7922 54.3059 25.7584C54.5386 25.7372 54.782 25.7253 55.034 25.7261C56.315 25.7299 57.3196 26.7838 57.3196 28.0341V30.3183C57.3196 30.6385 57.5791 30.8978 57.8991 30.8978H59.7509V27.8903C59.7509 25.3356 57.6801 23.2648 55.1255 23.2648H48.868C46.3134 23.2648 44.2426 25.3356 44.2426 27.8903V30.8978H46.0943C46.4144 30.8978 46.6738 30.6384 46.6738 30.3183V29.7326ZM44.317 35.9487C44.3134 35.8699 44.3107 35.7911 44.309 35.7124L44.3088 35.6917L44.3068 32.8978H43.8078C43.7128 32.8978 43.621 32.9121 43.5332 32.9388L43.5147 32.9442C43.1373 33.0675 42.8645 33.4225 42.8645 33.842V35.0046C42.8645 35.5265 43.2869 35.9487 43.8079 35.9487H44.317ZM57.6905 32.8895C56.3634 32.7834 55.3196 31.6728 55.3196 30.3183V28.0341C55.3196 27.855 55.176 27.7265 55.028 27.7261C54.5457 27.7246 54.0975 27.7861 53.7107 27.8711C52.6453 28.1054 51.5446 28.1186 50.4751 27.9109C50.4108 27.8985 50.3467 27.8852 50.2826 27.8711C49.8961 27.7861 49.4481 27.7246 48.9657 27.7261C48.8176 27.7265 48.6738 27.8549 48.6738 28.0341V28.7742V30.3183C48.6738 31.6715 47.6319 32.7812 46.3068 32.8892L46.3088 35.6796C46.3169 36.0361 46.3489 36.3835 46.4058 36.7186C46.414 36.7538 46.4205 36.7896 46.4249 36.8261C46.6362 37.9556 47.1351 38.9386 47.9566 39.6459C48.2586 39.9059 48.5962 40.1537 48.9716 40.3721C48.9928 40.3833 49.0136 40.3952 49.0339 40.4079C49.8431 40.8665 50.8243 41.1869 51.997 41.2019C53.1708 41.1869 54.1528 40.8659 54.9624 40.4066C54.9819 40.3945 55.0018 40.3831 55.0221 40.3723C55.3976 40.1539 55.7354 39.906 56.0375 39.6459C56.8635 38.9346 57.3662 37.945 57.5774 36.8101C57.581 36.7836 57.5857 36.7575 57.5914 36.7318C57.6485 36.4027 57.6813 36.0618 57.6907 35.7122L57.6905 35.691V32.8895ZM59.6905 32.8978V35.6456C59.6915 35.6678 59.6918 35.6901 59.6913 35.7125C59.6896 35.7912 59.687 35.87 59.6833 35.9487H60.1882C60.709 35.9487 61.1315 35.5266 61.1315 35.0046V33.842C61.1315 33.4259 60.8623 33.0727 60.4885 32.9469C60.4791 32.9444 60.4698 32.9417 60.4605 32.9389C60.3828 32.9153 60.3024 32.9014 60.2194 32.8984L60.2007 32.898L60.1874 32.8979L60.1751 32.8978H59.6905ZM52.0081 43.2019C52.9299 43.1916 53.7635 43.0369 54.511 42.7877C54.5602 43.2692 54.6918 43.7335 54.8955 44.1622L51.9964 46.4162L49.0989 44.1635C49.303 43.7345 49.4348 43.2699 49.4841 42.7881C50.2313 43.0371 51.0645 43.1917 51.9858 43.2019H52.0081ZM48.295 48.1805L50.0425 47.4305L47.1845 45.2085C47.1674 45.1961 47.1506 45.1831 47.1342 45.1695L47.1328 45.1684L46.9023 44.9891L45.7899 45.4102L47.0386 48.2277C47.1401 48.4567 47.4068 48.5617 47.637 48.4629L47.7551 48.4122C47.7911 48.3818 47.8297 48.3535 47.8708 48.3277C48.0038 48.2444 48.1488 48.1961 48.295 48.1805ZM51.9964 48.7683L54.0956 49.6693L52.9586 51.4827H51.0292L49.8932 49.671L51.9964 48.7683ZM57.0904 44.9891L53.9502 47.4305L55.695 48.1793C55.8407 48.1951 55.9853 48.2433 56.1178 48.3264C56.1585 48.3519 56.1967 48.3799 56.2323 48.4099L56.3557 48.4629C56.5859 48.5617 56.8526 48.4569 56.954 48.2279L58.2025 45.41L57.0904 44.9891Z"/>
<path fill-rule="evenodd" clip-rule="evenodd" d="M15.4409 11.2185C16.3782 10.9377 17.3774 10.9377 18.3148 11.2185L27.4592 13.9586C28.7537 14.3466 28.7538 16.1798 27.4593 16.5679L18.315 19.308C17.3775 19.589 16.3782 19.589 15.4408 19.308M15.4408 19.308L6.29652 16.5679C5.00176 16.1799 5.00173 14.3466 6.29649 13.9586L15.4409 11.2185M16.0148 13.1344L8.9103 15.2633L16.0149 17.3921C16.5777 17.5609 17.1778 17.5609 17.7408 17.3922L24.8454 15.2633L17.7409 13.1344C17.1779 12.9658 16.5777 12.9658 16.0148 13.1344Z"/>
<path fill-rule="evenodd" clip-rule="evenodd" d="M11.6495 21.7206C11.3935 21.7206 11.1861 21.5132 11.1861 21.2572V16.6899C11.1861 16.1376 10.7384 15.6899 10.1861 15.6899C9.63384 15.6899 9.18612 16.1376 9.18612 16.6899V21.2572C9.18612 22.6177 10.2889 23.7206 11.6495 23.7206H22.1047C23.4652 23.7206 24.568 22.6177 24.568 21.2572V16.6899C24.568 16.1376 24.1203 15.6899 23.568 15.6899C23.0157 15.6899 22.568 16.1376 22.568 16.6899V21.2572C22.568 21.5132 22.3605 21.7206 22.1047 21.7206H11.6495Z"/>
<path fill-rule="evenodd" clip-rule="evenodd" d="M17.4248 67.3188C17.9771 67.3188 18.4248 66.871 18.4248 66.3188V63.6392C18.4248 63.0869 17.9771 62.6392 17.4248 62.6392C16.8725 62.6392 16.4248 63.0869 16.4248 63.6392V66.3188C16.4248 66.871 16.8725 67.3188 17.4248 67.3188Z"/>
<path fill-rule="evenodd" clip-rule="evenodd" d="M27.4126 19.209C27.9649 19.209 28.4126 18.7613 28.4126 18.209V15.3778C28.4126 14.8255 27.9649 14.3778 27.4126 14.3778C26.8603 14.3778 26.4126 14.8255 26.4126 15.3778V18.209C26.4126 18.7613 26.8603 19.209 27.4126 19.209Z"/>
</g>
<defs>
<clipPath id="dclip0_128_1222">
<rect width="75" height="75" transform="matrix(1 0 0 -1 0 75)"/>
</clipPath>
</defs>
</symbol><symbol viewBox="0 0 75 75" id="student" xmlns="http://www.w3.org/2000/svg">
<g clip-path="url(#eclip0_128_1268)">
<path fill-rule="evenodd" clip-rule="evenodd" d="M61.5888 15.5729C62.1411 15.5734 62.5892 15.1261 62.5897 14.5738L62.5941 9.77356C62.5946 9.22128 62.1473 8.77315 61.595 8.77265C61.0428 8.77214 60.5946 9.21944 60.5941 9.77173L60.5897 14.572C60.5892 15.1242 61.0365 15.5724 61.5888 15.5729Z"/>
<path fill-rule="evenodd" clip-rule="evenodd" d="M19.454 74.9611C20.0063 74.9616 20.4544 74.5143 20.4549 73.962L20.4625 65.427C20.463 64.8747 20.0157 64.4266 19.4634 64.4261C18.9111 64.4256 18.463 64.873 18.4625 65.4252L18.4549 73.9602C18.4544 74.5125 18.9017 74.9606 19.454 74.9611Z"/>
<path fill-rule="evenodd" clip-rule="evenodd" d="M55.4122 74.9611C55.9645 74.9616 56.4126 74.5143 56.4131 73.962L56.4209 65.4271C56.4214 64.8748 55.9741 64.4266 55.4218 64.4261C54.8695 64.4256 54.4214 64.8729 54.4209 65.4252L54.4131 73.9602C54.4126 74.5125 54.8599 74.9606 55.4122 74.9611Z"/>
<path fill-rule="evenodd" clip-rule="evenodd" d="M61.7023 73L13.1637 72.9564C11.4759 72.9549 9.99825 71.4715 10 69.5018L10.0024 66.9708C10.0105 57.9554 15.6291 50.2229 23.4799 47.8158C23.4952 47.8119 23.5105 47.8077 23.5258 47.803C24.0897 47.6314 24.613 47.5057 25.1527 47.3903L22.9907 45.8754C22.9749 45.8793 22.9591 45.8837 22.9434 45.8885C14.165 48.5545 8.01125 57.1233 8.00235 66.9689L8 69.5C7.99736 72.4475 10.2469 74.9538 13.1619 74.9564L61.7005 75C64.6152 75.0024 66.8695 72.5005 66.8721 69.5529L66.8743 67.0218C66.8832 57.1706 60.7414 48.5967 51.9713 45.9145C51.9556 45.9097 51.9399 45.9053 51.9241 45.9013C51.0008 45.6208 50.3001 45.4797 49.7108 45.361C49.5261 45.3238 49.3524 45.2888 49.1862 45.2524L49.171 45.249L49.1612 45.2469L48.1141 45.0306C46.2786 44.6514 44.9127 43.1021 44.8339 41.2821C44.8312 41.219 44.8298 41.1546 44.8298 41.0892L44.8316 39.163C44.8321 38.6108 44.3848 38.1626 43.8325 38.1621C43.2802 38.1616 42.8321 38.6089 42.8316 39.1612L42.8298 41.0874C42.8298 41.1803 42.8317 41.2747 42.8357 41.3683C42.9564 44.1557 45.0287 46.4354 47.7094 46.9892L48.5429 47.1614C48.6689 47.2195 48.8222 47.2603 48.991 47.2558C49.1191 47.2825 49.2449 47.3079 49.3709 47.3333C49.9533 47.4508 50.5416 47.5694 51.3853 47.8279C51.4005 47.8326 51.4158 47.8368 51.431 47.8407C59.2748 50.2624 64.8825 57.9998 64.8743 67.0201L64.8721 69.5511C64.8704 71.5207 63.3899 73.0014 61.7023 73ZM31.8304 42.8295L30.0933 41.075L30.0951 39.1498C30.0956 38.5975 30.5437 38.1502 31.096 38.1507C31.6483 38.1512 32.0956 38.5993 32.0951 39.1516L32.0933 41.0787C32.0931 41.1698 32.0913 41.2634 32.0868 41.359C32.0639 41.8687 31.9756 42.3614 31.8304 42.8295Z"/>
<path d="M27.2075 46.97C26.8055 47.0559 26.4348 47.1299 26.0822 47.2004C25.7606 47.2646 25.4541 47.3259 25.1527 47.3903L22.9907 45.8754C23.9527 45.5856 24.8552 45.4053 25.7734 45.2219C26.1101 45.1546 26.4489 45.087 26.7935 45.0133L26.802 45.0115C28.6381 44.6357 30.0068 43.0888 30.0889 41.2689L30.0889 41.2673C30.0918 41.2063 30.0932 41.1418 30.0933 41.075L31.8304 42.8295C31.1819 44.9194 29.3968 46.5202 27.2075 46.97Z"/>
<path fill-rule="evenodd" clip-rule="evenodd" d="M47.3627 30.4867C47.2723 35.8783 42.8738 40.2188 37.4625 40.2139C32.0513 40.2091 27.6605 35.8606 27.5799 30.4689L27.585 24.6273C27.585 24.6273 27.585 24.6273 27.585 24.6273C27.5864 23.2205 28.7278 22.0811 30.1347 22.0822C30.1347 22.0822 30.1346 22.0822 30.1347 22.0822L34.9184 22.0866C36.8242 22.0882 38.6511 21.3253 39.9896 19.9688C40.8006 19.1468 41.9074 18.6846 43.0621 18.6856M47.3627 30.4867L47.3693 23.0005C47.3714 20.6196 45.443 18.6878 43.0621 18.6856M37.4607 42.2139C43.9698 42.2198 49.2586 36.9965 49.3625 30.5114L49.3627 30.4963L49.3693 23.0022C49.3724 19.5168 46.5494 16.6887 43.0639 16.6856C41.3736 16.6842 39.7533 17.3607 38.5659 18.5641C37.6037 19.5392 36.2904 20.0877 34.9202 20.0866L30.1365 20.0822C27.6252 20.0801 25.5875 22.114 25.585 24.6253L25.5799 30.4748L25.58 30.4899C25.6722 36.9751 30.9517 42.2081 37.4607 42.2139Z"/>
<path d="M20.4902 27.6998C20.493 25.1243 22.583 23.039 25.1582 23.0412L26.635 23.0425C27.1873 23.043 27.6346 23.4912 27.6341 24.0434C27.6336 24.5957 27.1855 25.043 26.6332 25.0425L25.1565 25.0412C23.6855 25.04 22.4918 26.2312 22.4902 27.702C22.4885 29.1736 23.6802 30.3679 25.1516 30.3693L26.6328 30.3706C27.1851 30.3711 27.6324 30.8192 27.6319 31.3715C27.6314 31.9238 27.1833 32.3711 26.631 32.3706L25.1499 32.3693C22.5736 32.3668 20.4872 30.2761 20.4902 27.6998Z"/>
<path fill-rule="evenodd" clip-rule="evenodd" d="M47.3682 24.061C47.3687 23.5087 47.8168 23.0614 48.3691 23.0619L49.8044 23.0633C52.3798 23.0657 54.4657 25.155 54.4642 27.7303C54.4625 30.3066 52.3722 32.3935 49.796 32.3913L48.3076 32.39C47.7554 32.3895 47.308 31.9414 47.3085 31.3891C47.309 30.8368 47.7571 30.3895 48.3094 30.39L49.7978 30.3913C51.2693 30.3926 52.4632 29.2005 52.4642 27.7291C52.465 26.2581 51.2735 25.0646 49.8026 25.0633L48.7592 25.0623L48.3672 25.0619C47.815 25.0614 47.3677 24.6133 47.3682 24.061Z"/>
<path fill-rule="evenodd" clip-rule="evenodd" d="M49.4687 46.8627C49.6516 47.3839 50.2224 47.658 50.7435 47.4751C55.5741 45.7796 58.1124 40.1588 55.8894 35.2808C55.875 35.2493 55.86 35.2166 55.845 35.1843C55.845 35.1842 55.8451 35.1844 55.845 35.1843C54.9119 33.1685 54.4544 30.955 54.4555 28.7146L54.4579 23.7295C54.4594 22.0399 54.2126 20.4066 53.7539 18.8646C53.5965 18.3352 53.0397 18.0337 52.5103 18.1912C51.981 18.3486 51.6795 18.9054 51.8369 19.4348C52.2413 20.7944 52.4592 22.2348 52.4579 23.7276L52.4555 28.7136C52.4543 31.2254 52.9671 33.7284 54.0302 36.0249L54.0695 36.1102C55.7977 39.9032 53.8182 44.2763 50.0811 45.588C49.56 45.7709 49.2858 46.3416 49.4687 46.8627Z"/>
<path fill-rule="evenodd" clip-rule="evenodd" d="M25.4447 46.8412C25.6285 46.3204 25.3554 45.7492 24.8346 45.5654C21.0998 44.2469 19.128 39.8707 20.8631 36.0808C20.8632 36.0806 20.863 36.081 20.8631 36.0808L20.9026 35.9952C20.9027 35.9949 20.9029 35.9945 20.903 35.9942C21.9701 33.6998 22.4873 31.1981 22.4905 28.6868L22.497 23.7012C22.4985 22.0979 22.7524 20.5553 23.2189 19.1093C23.3885 18.5837 23.0999 18.0202 22.5743 17.8506C22.0487 17.681 21.4851 17.9696 21.3155 18.4952C20.7862 20.1357 20.4987 21.8843 20.497 23.6986L20.4905 28.6842C20.4876 30.9246 20.0261 33.1374 19.0891 35.1517L19.0885 35.153L19.0468 35.2435L19.0449 35.2476C16.8129 40.1217 19.3412 45.747 24.1688 47.4513C24.6896 47.6351 25.2608 47.362 25.4447 46.8412Z"/>
<path fill-rule="evenodd" clip-rule="evenodd" d="M52.2564 18.2663C42.4721 15.7797 32.9123 15.7709 23.124 18.2402L22.2952 13.3395C23.2508 13.0767 24.2034 12.8382 25.1535 12.6239C25.6922 12.5023 26.0305 11.9671 25.9089 11.4283C25.7874 10.8896 25.2522 10.5514 24.7134 10.6729C23.7086 10.8996 22.7017 11.1523 21.6924 11.4311C20.7363 11.6953 20.1486 12.6412 20.3118 13.6062C20.3119 13.6062 20.3118 13.6061 20.3118 13.6062L21.1655 18.6538C21.3519 19.755 22.4388 20.477 23.5327 20.1997C33.0536 17.7847 42.3269 17.7931 51.8439 20.2251C52.9374 20.5046 54.0258 19.7844 54.2141 18.6834L55.0768 13.6379C55.0768 13.6378 55.0768 13.638 55.0768 13.6379C55.2419 12.673 54.6558 11.726 53.7003 11.46C45.6976 9.23302 37.8529 8.65413 29.9195 9.73154C29.3722 9.80586 28.9888 10.3098 29.0631 10.857C29.1374 11.4043 29.6413 11.7877 30.1886 11.7133C37.8174 10.6773 45.3655 11.2259 53.094 13.3673L52.2564 18.2663ZM53.1055 13.3003C53.1055 13.3003 53.1055 13.3004 53.1055 13.3003V13.3003Z"/>
<path fill-rule="evenodd" clip-rule="evenodd" d="M53.0761 13.2663C53.2716 13.7828 53.8489 14.043 54.3654 13.8475L61.694 11.0729C61.6942 11.0729 61.6939 11.073 61.694 11.0729C62.8915 10.6198 62.8913 8.92787 61.6969 8.47313L41.0618 0.618777C41.0618 0.618774 41.0618 0.61878 41.0618 0.618777C38.8997 -0.204263 36.5109 -0.20621 34.3474 0.612673L13.6983 8.4299C13.6982 8.42994 13.6984 8.42986 13.6983 8.4299C12.5014 8.88288 12.5007 10.5748 13.6958 11.0297C13.6958 11.0297 13.6958 11.0297 13.6958 11.0297L21.02 13.8176C21.5362 14.0141 22.1139 13.7549 22.3103 13.2388C22.5068 12.7226 22.2477 12.1449 21.7315 11.9485L15.9082 9.73183L35.0554 2.48317C35.0554 2.48316 35.0554 2.48318 35.0554 2.48317C36.7616 1.83738 38.6454 1.83895 40.3503 2.48793L59.4844 9.77094L53.6572 11.977C53.1407 12.1726 52.8805 12.7498 53.0761 13.2663ZM60.9868 9.20215C60.9869 9.2021 60.9866 9.20221 60.9868 9.20215V9.20215Z"/>
<path fill-rule="evenodd" clip-rule="evenodd" d="M65.0266 20.6343C65.1625 21.8153 64.2385 22.8505 63.05 22.8497L60.1125 22.8469C58.9234 22.846 58.0016 21.8085 58.1396 20.6281L58.759 15.3292C58.8761 14.3266 59.7262 13.5711 60.7354 13.572L62.4436 13.5736C63.4528 13.5745 64.3014 14.3315 64.4167 15.3346L65.0266 20.6343ZM60.4303 18.2583L60.5913 16.8802L60.7443 15.572L62.431 15.5736L62.7961 18.7464L63.0381 20.8496L61.9082 20.8486L60.1277 20.8469L60.4303 18.2583Z"/>
<path fill-rule="evenodd" clip-rule="evenodd" d="M30.4354 55.6936C34.9274 57.4944 39.9648 57.4991 44.4599 55.7063C44.9729 55.5017 45.2229 54.92 45.0183 54.407C44.8137 53.894 44.232 53.644 43.719 53.8486C39.7008 55.4512 35.1951 55.447 31.1797 53.8372C30.667 53.6317 30.0849 53.8807 29.8794 54.3933C29.6739 54.906 29.9228 55.4881 30.4354 55.6936Z"/>
<path fill-rule="evenodd" clip-rule="evenodd" d="M25.988 45.2069C26.5399 45.2266 26.9714 45.69 26.9517 46.2419C26.941 46.5422 27.0217 46.8257 27.1611 47.0495C27.1641 47.0542 27.167 47.059 27.1698 47.0637L32.0401 54.8486C32.0611 54.8823 33.2025 56.7972 34.3235 58.6782L36.5754 62.4568C36.5754 62.4568 36.5756 62.4572 35.7166 62.9691L36.5754 62.4568L36.5775 62.4604C36.7959 62.8301 37.1288 62.9861 37.4419 62.9874C37.7548 62.9868 38.0883 62.8313 38.3073 62.4621L38.3093 62.4588L39.142 62.9571C38.3093 62.4588 38.3093 62.4588 38.3093 62.4588L40.5682 58.6839C41.6921 56.8057 42.8377 54.8915 42.8594 54.857L47.7412 47.0845C47.7344 47.096 47.7277 47.1077 47.7213 47.1195L47.7195 47.1227L48.5975 47.6015L47.7506 47.0696L47.7412 47.0845C47.7446 47.0789 47.748 47.0734 47.7514 47.0679C47.8915 46.844 47.9726 46.5611 47.9624 46.2608C47.9437 45.7089 48.376 45.2462 48.928 45.2275C49.4799 45.2088 49.9426 45.6411 49.9613 46.1931C49.9847 46.8823 49.803 47.5519 49.4576 48.1116C49.4637 48.1012 49.4696 48.0908 49.4754 48.0802L49.4772 48.077L48.5992 47.5982L49.447 48.1286C49.4505 48.1229 49.454 48.1173 49.4576 48.1116C49.4532 48.1189 49.4488 48.1261 49.4443 48.1333L44.553 55.9208C44.553 55.9208 44.5329 55.9545 44.4946 56.0183C44.3919 56.1897 44.1593 56.5781 43.8432 57.1063L40.0288 63.4803L40.0274 63.4825L39.1674 62.9723C40.0255 63.4857 40.0256 63.4857 40.0256 63.4857C39.4421 64.4667 38.4521 64.9869 37.4415 64.9874H37.4386C36.4279 64.9849 35.4385 64.4629 34.8567 63.4795M25.4549 48.0931C25.1094 47.5322 24.9283 46.8607 24.953 46.1706C24.9727 45.6186 25.4361 45.1872 25.988 45.2069M40.0256 63.4857L40.0263 63.4844L40.0274 63.4825M21.2639 46.4962C21.7397 46.2158 22.3527 46.3744 22.633 46.8502L26.0203 52.6002C26.3006 53.076 26.1421 53.689 25.6662 53.9694C25.1904 54.2497 24.5774 54.0912 24.297 53.6153L20.9098 47.8653C20.6295 47.3895 20.788 46.7765 21.2639 46.4962ZM53.6495 46.5253C54.1249 46.8065 54.2823 47.4198 54.0011 47.8951L43.4229 65.7793C42.0516 68.0981 39.7508 69.2772 37.4363 69.2624C35.1216 69.273 32.8232 68.0896 31.456 65.7687L26.9127 58.056C26.6324 57.5801 26.7909 56.9671 27.2668 56.6868C27.7426 56.4065 28.3556 56.565 28.636 57.0409L33.1793 64.7536C34.1821 66.456 35.8189 67.2713 37.4317 67.2624L37.4445 67.2624C39.0573 67.2742 40.6957 66.4619 41.7014 64.7613L52.2797 46.8769C52.5609 46.4016 53.1742 46.2442 53.6495 46.5253Z"/>
<path d="M34.8567 63.4795L25.988 45.2069L25.4549 48.0931L34.8567 63.4795Z"/>
</g>
<defs>
<clipPath id="eclip0_128_1268">
<rect width="75" height="75" transform="matrix(1 0 0 -1 0 75)"/>
</clipPath>
</defs>
</symbol><symbol viewBox="0 0 30 30" id="telegram" xmlns="http://www.w3.org/2000/svg">
<path fill-rule="evenodd" clip-rule="evenodd" d="M23.7998 4.14908C22.914 4.55092 12.9294 9.2122 4.79678 12.9894C4.15261 13.3109 3.75 13.9539 3.75 14.5968C3.75 15.2397 4.23313 15.7219 4.79678 15.8023C5.2799 15.8827 10.1112 16.606 10.1112 16.606L11.48 24.6427L12.2047 21.1065L11.1579 15.8023L20.9815 8.56927L12.9294 17.4096L15.7477 20.6243C15.9087 20.785 19.3711 24.8034 19.6127 25.0445C20.0153 25.4463 20.6594 26.25 20.9815 26.25C21.5452 26.25 22.1088 25.4463 22.3504 24.2408C22.592 23.1157 24.2024 15.3201 26.2154 4.95275C26.457 3.82761 25.4102 3.34541 23.7998 4.14908Z"/>
</symbol><symbol viewBox="0 0 75 75" id="test" xmlns="http://www.w3.org/2000/svg">
<g clip-path="url(#gclip0_128_1368)">
<path fill-rule="evenodd" clip-rule="evenodd" d="M16.8926 26.7015C16.8926 27.2538 17.3403 27.7015 17.8926 27.7015H57.5771C58.1294 27.7015 58.5771 27.2538 58.5771 26.7015C58.5771 26.1493 58.1294 25.7015 57.5771 25.7015H17.8926C17.3403 25.7015 16.8926 26.1493 16.8926 26.7015Z"/>
<path fill-rule="evenodd" clip-rule="evenodd" d="M16.8926 34.0845C16.8926 34.6368 17.3403 35.0845 17.8926 35.0845H57.5771C58.1294 35.0845 58.5771 34.6368 58.5771 34.0845C58.5771 33.5322 58.1294 33.0845 57.5771 33.0845H17.8926C17.3403 33.0845 16.8926 33.5322 16.8926 34.0845Z"/>
<path fill-rule="evenodd" clip-rule="evenodd" d="M16.8926 41.4678C16.8926 42.0201 17.3403 42.4678 17.8926 42.4678H57.5771C58.1294 42.4678 58.5771 42.0201 58.5771 41.4678C58.5771 40.9155 58.1294 40.4678 57.5771 40.4678H17.8926C17.3403 40.4678 16.8926 40.9155 16.8926 41.4678Z"/>
<path fill-rule="evenodd" clip-rule="evenodd" d="M16.8926 48.8508C16.8926 49.403 17.3403 49.8508 17.8926 49.8508H31.1207C31.673 49.8508 32.1207 49.403 32.1207 48.8508C32.1207 48.2985 31.673 47.8508 31.1207 47.8508H17.8926C17.3403 47.8508 16.8926 48.2985 16.8926 48.8508Z"/>
<path fill-rule="evenodd" clip-rule="evenodd" d="M16.8926 56.2339C16.8926 56.7862 17.3403 57.2339 17.8926 57.2339H31.1207C31.673 57.2339 32.1207 56.7862 32.1207 56.2339C32.1207 55.6816 31.673 55.2339 31.1207 55.2339H17.8926C17.3403 55.2339 16.8926 55.6816 16.8926 56.2339Z"/>
<path fill-rule="evenodd" clip-rule="evenodd" d="M35.054 11.6192C35.054 12.1715 35.5017 12.6192 36.054 12.6192H57.5771C58.1294 12.6192 58.5771 12.1715 58.5771 11.6192C58.5771 11.0669 58.1294 10.6192 57.5771 10.6192H36.054C35.5017 10.6192 35.054 11.0669 35.054 11.6192Z"/>
<path fill-rule="evenodd" clip-rule="evenodd" d="M51.3457 62.0595C51.8624 61.8645 52.1232 61.2875 51.9282 60.7708L48.1377 50.7266C48.1342 50.7174 48.1306 50.7083 48.1268 50.6992C47.708 49.6815 46.2659 49.6827 45.8492 50.7017L45.8403 50.7243L42.015 60.768C41.8185 61.2841 42.0775 61.8619 42.5936 62.0584C43.1098 62.255 43.6875 61.996 43.8841 61.4798L46.9852 53.3373L50.057 61.477C50.2521 61.9937 50.829 62.2545 51.3457 62.0595Z"/>
<path fill-rule="evenodd" clip-rule="evenodd" d="M43.1425 58.6225C43.1425 59.1748 43.5902 59.6225 44.1425 59.6225H49.8188C50.3711 59.6225 50.8188 59.1748 50.8188 58.6225C50.8188 58.0703 50.3711 57.6225 49.8188 57.6225H44.1425C43.5902 57.6225 43.1425 58.0703 43.1425 58.6225Z"/>
<path fill-rule="evenodd" clip-rule="evenodd" d="M8 67.3181C8 71.5608 11.4394 75 15.6819 75H59.7882C64.0307 75 67.47 71.5608 67.47 67.3181V58.8106C67.47 58.2583 67.0223 57.8106 66.47 57.8106C65.9177 57.8106 65.47 58.2583 65.47 58.8106V67.3181C65.47 70.4562 62.9261 73 59.7882 73H15.6819C12.544 73 10 70.4562 10 67.3181V32.5517C10 31.9994 9.55228 31.5517 9 31.5517C8.44772 31.5517 8 31.9994 8 32.5517V67.3181Z"/>
<path fill-rule="evenodd" clip-rule="evenodd" d="M66.47 54.6571C67.0223 54.6571 67.47 54.2094 67.47 53.6571V7.68193C67.47 3.43923 64.0306 0 59.7881 0H28.5642C26.3163 0 24.1602 0.892891 22.5707 2.4826C22.5706 2.48261 22.5707 2.48259 22.5707 2.4826L10.4827 14.5706C8.89292 16.1602 8.00001 18.3162 8.00001 20.5642V27.4165C8.00001 27.9687 8.44773 28.4165 9.00001 28.4165C9.5523 28.4165 10 27.9687 10 27.4165V20.5642C10 18.8466 10.6823 17.1993 11.8968 15.9849L23.9849 3.89681C25.1993 2.68228 26.8466 2 28.5642 2H59.7881C62.926 2 65.47 4.54383 65.47 7.68193V53.6571C65.47 54.2094 65.9177 54.6571 66.47 54.6571Z"/>
<path fill-rule="evenodd" clip-rule="evenodd" d="M8.67359 17.4676C8.67359 18.0198 9.1213 18.4676 9.67359 18.4676H22.5746C24.7247 18.4676 26.4674 16.7246 26.4674 14.5747V1.67355C26.4674 1.12127 26.0197 0.673552 25.4674 0.673552C24.9152 0.673552 24.4674 1.12127 24.4674 1.67355V14.5747C24.4674 15.6201 23.6201 16.4676 22.5746 16.4676H9.67359C9.1213 16.4676 8.67359 16.9153 8.67359 17.4676Z"/>
<path fill-rule="evenodd" clip-rule="evenodd" d="M46.9709 66.3121C41.6656 66.3121 37.3646 62.0111 37.3646 56.7056C37.3646 51.4003 41.6656 47.0993 46.9709 47.0993C52.2764 47.0993 56.5774 51.4003 56.5774 56.7056C56.5774 62.0111 52.2764 66.3121 46.9709 66.3121ZM35.3646 56.7056C35.3646 63.1157 40.561 68.3121 46.9709 68.3121C53.381 68.3121 58.5774 63.1157 58.5774 56.7056C58.5774 50.2957 53.381 45.0993 46.9709 45.0993C40.561 45.0993 35.3646 50.2957 35.3646 56.7056Z"/>
</g>
<defs>
<clipPath id="gclip0_128_1368">
<rect width="75" height="75" transform="matrix(1 0 0 -1 0 75)"/>
</clipPath>
</defs>
</symbol><symbol viewBox="0 0 30 30" id="vk" xmlns="http://www.w3.org/2000/svg">
<path d="M28.6042 21.6698C28.5709 21.598 28.5398 21.5385 28.511 21.4908C28.0339 20.6315 27.1221 19.5767 25.7762 18.3262L25.7478 18.2976L25.7335 18.2836L25.7191 18.2692H25.7047C25.0939 17.6869 24.7071 17.2954 24.5451 17.0949C24.2487 16.7131 24.1823 16.3266 24.3443 15.9349C24.4587 15.6391 24.8886 15.0142 25.6329 14.0595C26.0245 13.5535 26.3345 13.148 26.5635 12.8425C28.215 10.647 28.931 9.24398 28.7113 8.63301L28.626 8.49024C28.5687 8.40428 28.4208 8.32564 28.1824 8.25393C27.9435 8.18237 27.6381 8.17053 27.2658 8.21822L23.1423 8.24671C23.0755 8.22304 22.9801 8.22524 22.8558 8.25393C22.7317 8.28262 22.6696 8.29701 22.6696 8.29701L22.5978 8.33287L22.5409 8.37594C22.4931 8.40443 22.4406 8.45453 22.3833 8.52614C22.3263 8.59751 22.2786 8.68125 22.2405 8.77669C21.7915 9.93169 21.2811 11.0055 20.7083 11.9982C20.355 12.5901 20.0307 13.1031 19.7344 13.5374C19.4386 13.9716 19.1904 14.2915 18.9901 14.4966C18.7895 14.7019 18.6085 14.8663 18.4459 14.9905C18.2836 15.1148 18.1596 15.1673 18.0738 15.1481C17.9878 15.1289 17.9068 15.1098 17.8302 15.0908C17.6966 15.0048 17.5892 14.8879 17.5082 14.74C17.4269 14.592 17.3721 14.4058 17.3435 14.1815C17.315 13.957 17.2981 13.764 17.2933 13.6016C17.2888 13.4395 17.2909 13.2102 17.3006 12.9143C17.3105 12.6183 17.315 12.418 17.315 12.3129C17.315 11.9502 17.322 11.5564 17.3362 11.1317C17.3507 10.7069 17.3624 10.3703 17.3721 10.1224C17.3819 9.87421 17.3864 9.61163 17.3864 9.33481C17.3864 9.05798 17.3695 8.84088 17.3362 8.68331C17.3033 8.52594 17.2528 8.37319 17.1863 8.22509C17.1193 8.07715 17.0214 7.96271 16.8928 7.88147C16.7639 7.80033 16.6038 7.73594 16.4131 7.68809C15.9072 7.5736 15.2629 7.51167 14.48 7.50204C12.7047 7.48298 11.5639 7.59762 11.058 7.84581C10.8576 7.95068 10.6762 8.09395 10.514 8.27519C10.3421 8.48527 10.3182 8.59991 10.4422 8.61877C11.015 8.70458 11.4205 8.90984 11.6592 9.23436L11.7452 9.40632C11.8121 9.53039 11.8789 9.75004 11.9458 10.065C12.0125 10.3799 12.0556 10.7283 12.0745 11.11C12.1222 11.8069 12.1222 12.4035 12.0745 12.8997C12.0268 13.3962 11.9816 13.7827 11.9385 14.0596C11.8955 14.3364 11.8311 14.5607 11.7452 14.7325C11.6592 14.9043 11.602 15.0093 11.5733 15.0474C11.5447 15.0855 11.5208 15.1095 11.5018 15.119C11.3778 15.1665 11.2487 15.1907 11.1152 15.1907C10.9814 15.1907 10.8192 15.1238 10.6284 14.9901C10.4376 14.8564 10.2395 14.6728 10.0343 14.4389C9.82899 14.2049 9.5975 13.878 9.33968 13.4581C9.08207 13.0381 8.81477 12.5418 8.53794 11.9691L8.30891 11.5537C8.16573 11.2865 7.97015 10.8975 7.72196 10.3869C7.47362 9.87612 7.25411 9.38205 7.06329 8.90477C6.98702 8.70432 6.87242 8.55172 6.71972 8.44671L6.64805 8.40363C6.60041 8.36551 6.52393 8.32504 6.41902 8.28191C6.31396 8.23884 6.20433 8.20794 6.08969 8.18894L2.16653 8.21742C1.76564 8.21742 1.49363 8.30824 1.3504 8.48963L1.29308 8.57544C1.26444 8.62323 1.25 8.69956 1.25 8.80462C1.25 8.90964 1.27864 9.03852 1.33596 9.19113C1.90867 10.5371 2.53147 11.8353 3.20438 13.0857C3.87729 14.3361 4.46203 15.3434 4.95826 16.1066C5.45459 16.8703 5.9605 17.5911 6.47599 18.2686C6.99148 18.9464 7.3327 19.3807 7.49964 19.5715C7.66679 19.7627 7.79808 19.9056 7.89352 20.0011L8.25154 20.3447C8.48062 20.5738 8.81703 20.8482 9.2609 21.1679C9.70487 21.4878 10.1964 21.8027 10.7357 22.1132C11.2751 22.4232 11.9026 22.6762 12.6186 22.8718C13.3345 23.0676 14.0313 23.1462 14.7091 23.1083H16.3557C16.6896 23.0795 16.9426 22.9744 17.1146 22.7932L17.1715 22.7214C17.2099 22.6645 17.2457 22.576 17.2788 22.4569C17.3123 22.3375 17.329 22.2061 17.329 22.0631C17.3192 21.6528 17.3504 21.2829 17.4218 20.9536C17.4932 20.6244 17.5746 20.3762 17.6655 20.2091C17.7564 20.0421 17.8591 19.9012 17.9732 19.7869C18.0877 19.6724 18.1692 19.6031 18.2171 19.5792C18.2646 19.5552 18.3026 19.5389 18.3312 19.5291C18.5603 19.4528 18.8299 19.5267 19.1404 19.7512C19.4507 19.9755 19.7417 20.2525 20.0139 20.5817C20.286 20.9112 20.6129 21.2808 20.9946 21.6912C21.3766 22.1017 21.7106 22.4069 21.9968 22.6077L22.2831 22.7795C22.4743 22.8941 22.7225 22.9991 23.028 23.0946C23.3329 23.1899 23.6001 23.2138 23.8296 23.1661L27.4948 23.1089C27.8574 23.1089 28.1395 23.0489 28.3396 22.9298C28.5401 22.8105 28.6592 22.6791 28.6976 22.5361C28.7359 22.393 28.738 22.2306 28.7049 22.049C28.6709 21.8679 28.6375 21.7413 28.6042 21.6698Z"/>
</symbol></svg>