<svg width="80" height="48" viewBox="0 0 80 48" fill="none" xmlns="http://www.w3.org/2000/svg">
<path fill-rule="evenodd" clip-rule="evenodd" d="M15.7225 19.8382H13.1791L19.6531 0.416199H23.8149L30.2889 19.8382H24.2774L19.8843 6.65897L15.7225 19.8382ZM53.1791 0.416199H36.7629V2.26591C37.2253 2.34298 38.4739 2.49712 39.7687 2.49712C41.0635 2.49712 41.8496 3.42198 42.0808 3.8844L47.1675 19.8382H53.4103L48.786 5.5029C48.786 5.5029 47.8026 3.95006 48.3236 3.19076C48.7126 2.62373 49.9421 2.49712 49.9421 2.49712L53.1791 2.26591V0.416199ZM51.5606 33.2485H57.5721L60.3467 41.5722L62.89 33.2485H65.4334L60.8091 47.5838H56.1849L51.5606 33.2485ZM0 45.734L4.16185 45.2716C4.47013 45.1945 5.13294 44.9017 5.31791 44.3468L9.01733 33.2485H11.5607L8.32369 42.9595C8.28214 43.2088 8.21817 43.4432 8.15864 43.6614C7.887 44.6568 7.70789 45.3132 10.1734 45.5028L12.948 45.734V47.5838H0V45.734ZM26.8208 45.734L31.4451 45.2716C31.7533 45.1945 32.2312 44.6242 31.6763 42.9595L28.4393 33.2485H34.6821L37.919 43.4219C38.2273 44.2697 38.6127 45.0404 39.7688 45.2716C40.5635 45.3599 41.3358 45.4482 41.9954 45.5237L41.9959 45.5237C43.0631 45.6457 43.8353 45.734 43.9306 45.734V47.5838H26.8208V45.734ZM69.5953 19.8382H67.2832C68.1047 16.9115 69.7403 11.9324 70.9048 8.38764L70.905 8.3871C71.4883 6.61124 71.9534 5.19541 72.1387 4.57805C72.6369 2.91736 71.495 2.74765 70.2524 2.56298C70.111 2.54196 69.9683 2.52075 69.8265 2.49712C68.4392 2.26591 67.5144 2.26591 67.5144 2.26591V0.416199H79.9999V2.26591L77.2254 2.49712C77.2254 2.49712 75.3756 2.72834 74.9132 3.65319C74.4508 4.57805 69.5953 19.8382 69.5953 19.8382ZM56.664 25.7235C56.6324 25.4053 56.4919 25.1522 56.2425 24.9642C55.9931 24.7762 55.6795 24.6822 55.3017 24.6822C55.0356 24.6822 54.8011 24.7278 54.5982 24.819C54.3972 24.9102 54.239 25.0368 54.1236 25.1987C54.0101 25.3587 53.9533 25.5411 53.9533 25.7459C53.9533 25.8966 53.9859 26.0287 54.0511 26.1423C54.1162 26.2558 54.2037 26.3535 54.3135 26.4354C54.4251 26.5154 54.548 26.5843 54.682 26.642C54.8178 26.6997 54.9546 26.7481 55.0923 26.7871L55.6953 26.9602C55.8777 27.0105 56.0601 27.0747 56.2425 27.1528C56.4249 27.231 56.5914 27.3296 56.7422 27.4488C56.8948 27.566 57.0167 27.7102 57.1079 27.8815C57.201 28.0508 57.2475 28.2546 57.2475 28.4928C57.2475 28.798 57.1684 29.0726 57.0102 29.3164C56.852 29.5602 56.6249 29.7537 56.329 29.897C56.0331 30.0385 55.6786 30.1092 55.2654 30.1092C54.8764 30.1092 54.5387 30.045 54.252 29.9166C53.9654 29.7863 53.7402 29.6067 53.5765 29.3778C53.4127 29.1489 53.3206 28.8837 53.3001 28.5822H53.8361C53.8547 28.8074 53.9291 28.9981 54.0594 29.1544C54.1897 29.3108 54.3591 29.4299 54.5675 29.5118C54.7759 29.5918 55.0086 29.6318 55.2654 29.6318C55.5502 29.6318 55.8033 29.5844 56.0247 29.4894C56.2481 29.3927 56.423 29.2587 56.5496 29.0874C56.678 28.9144 56.7422 28.7134 56.7422 28.4845C56.7422 28.2909 56.6919 28.129 56.5914 27.9987C56.4909 27.8666 56.3504 27.7558 56.1699 27.6665C55.9912 27.5772 55.7837 27.4981 55.5474 27.4292L54.8634 27.2282C54.4149 27.0942 54.0669 26.909 53.8193 26.6727C53.5718 26.4363 53.4481 26.1348 53.4481 25.7682C53.4481 25.4611 53.5299 25.1912 53.6937 24.9586C53.8594 24.7241 54.0827 24.5417 54.3637 24.4114C54.6466 24.2793 54.9639 24.2132 55.3157 24.2132C55.6711 24.2132 55.9857 24.2784 56.2592 24.4087C56.5328 24.5389 56.7496 24.7185 56.9097 24.9474C57.0716 25.1745 57.1581 25.4332 57.1693 25.7235H56.664ZM7.70406 30.0115H7.1569L9.23667 24.2942H9.795L11.8748 30.0115H11.3276L10.715 28.289H8.3167L7.70406 30.0115ZM9.53538 24.9726L10.5482 27.82H8.48351L9.4963 24.9726H9.53538ZM18.0934 24.2942V30.0115H17.5854L14.2075 25.2238H14.1628V30.0115H13.6408V24.2942H14.1461L17.5351 29.0874H17.5798V24.2942H18.0934ZM24.8523 30.0115V24.2942H24.3386V29.0874H24.294L20.9049 24.2942H20.3996V30.0115H20.9217V25.2238H20.9663L24.3442 30.0115H24.8523ZM27.1668 30.0115H26.6197L28.6994 24.2942H29.2578L31.3375 30.0115H30.7904L30.1778 28.289H27.7795L27.1668 30.0115ZM28.9982 24.9726L30.0109 27.82H27.9463L28.9591 24.9726H28.9982ZM37.8957 29.3331L36.109 24.2942H35.5619L37.6416 30.0115H38.2L40.2797 24.2942H39.7326L37.9459 29.3331H37.8957ZM42.0457 30.0115V24.2942H42.5678V29.5425H45.2924V30.0115H42.0457ZM47.0759 30.0115H47.623L48.2356 28.289H50.6339L51.2466 30.0115H51.7937L49.714 24.2942H49.1556L47.0759 30.0115ZM50.4671 27.82L49.4543 24.9726H49.4152L48.4025 27.82H50.4671ZM63.6588 28.7078C63.8709 28.2667 63.977 27.7484 63.977 27.1528C63.977 26.5573 63.8709 26.0399 63.6588 25.6007C63.4466 25.1596 63.1544 24.819 62.7822 24.5789C62.4118 24.337 61.9856 24.216 61.5036 24.216C61.0235 24.216 60.5973 24.337 60.225 24.5789C59.8528 24.819 59.5606 25.1596 59.3485 25.6007C59.1382 26.0399 59.033 26.5573 59.033 27.1528C59.033 27.7484 59.1382 28.2667 59.3485 28.7078C59.5606 29.147 59.8519 29.4876 60.2223 29.7295C60.5945 29.9696 61.0216 30.0896 61.5036 30.0896C61.9856 30.0896 62.4118 29.9696 62.7822 29.7295C63.1544 29.4876 63.4466 29.147 63.6588 28.7078ZM63.2121 25.838C63.3833 26.2028 63.4689 26.641 63.4689 27.1528C63.4708 27.6646 63.3861 28.1039 63.2149 28.4705C63.0437 28.8353 62.8092 29.1144 62.5114 29.308C62.2155 29.5015 61.8796 29.5983 61.5036 29.5983C61.1277 29.5983 60.7917 29.5015 60.4958 29.308C60.1999 29.1126 59.9664 28.8325 59.7951 28.4677C59.6239 28.1029 59.5383 27.6646 59.5383 27.1528C59.5383 26.6392 59.6239 26.2 59.7951 25.8352C59.9682 25.4704 60.2027 25.1912 60.4986 24.9977C60.7945 24.8041 61.1295 24.7074 61.5036 24.7074C61.8796 24.7074 62.2155 24.8041 62.5114 24.9977C62.8073 25.1912 63.0409 25.4713 63.2121 25.838ZM65.7653 24.2942L67.552 29.3331H67.6022L69.3889 24.2942H69.9361L67.8563 30.0115H67.298L65.2182 24.2942H65.7653ZM70.6719 30.0115H71.2191L71.8317 28.289H74.23L74.8426 30.0115H75.3898L73.31 24.2942H72.7517L70.6719 30.0115ZM74.0632 27.82L73.0504 24.9726H73.0113L71.9985 27.82H74.0632Z" fill="#010101"/>
</svg>
